<svg xmlns="http://www.w3.org/2000/svg" xmlns:xlink="http://www.w3.org/1999/xlink" id="processonSvg1000" viewBox="52.85514831542969 11.875 689.0 526.0" width="689.0" height="526.0"><defs id="ProcessOnDefs1001"><marker id="ProcessOnMarker1018" markerUnits="userSpaceOnUse" orient="auto" markerWidth="16.23606797749979" markerHeight="10.550836550532098" viewBox="-1.0 -1.3763819204711736 16.23606797749979 10.550836550532098" refX="-1.0" refY="3.8990363547948754"><path id="ProcessOnPath1019" d="M12.0 3.8990363547948754L0.0 7.798072709589751V0.0Z" stroke="#323232" stroke-width="2.0" fill="#323232" transform="matrix(1.0,0.0,0.0,1.0,0.0,0.0)"/></marker><marker id="ProcessOnMarker1030" markerUnits="userSpaceOnUse" orient="auto" markerWidth="16.23606797749979" markerHeight="10.550836550532098" viewBox="-1.0 -1.3763819204711736 16.23606797749979 10.550836550532098" refX="-1.0" refY="3.8990363547948754"><path id="ProcessOnPath1031" d="M12.0 3.8990363547948754L0.0 7.798072709589751V0.0Z" stroke="#323232" stroke-width="2.0" fill="#323232" transform="matrix(1.0,0.0,0.0,1.0,0.0,0.0)"/></marker><marker id="ProcessOnMarker1045" markerUnits="userSpaceOnUse" orient="auto" markerWidth="16.23606797749979" markerHeight="10.550836550532098" viewBox="-1.0 -1.3763819204711736 16.23606797749979 10.550836550532098" refX="-1.0" refY="3.8990363547948754"><path id="ProcessOnPath1046" d="M12.0 3.8990363547948754L0.0 7.798072709589751V0.0Z" stroke="#323232" stroke-width="2.0" fill="#323232" transform="matrix(1.0,0.0,0.0,1.0,0.0,0.0)"/></marker><marker id="ProcessOnMarker1054" markerUnits="userSpaceOnUse" orient="auto" markerWidth="16.23606797749979" markerHeight="10.550836550532098" viewBox="-1.0 -1.3763819204711736 16.23606797749979 10.550836550532098" refX="-1.0" refY="3.8990363547948754"><path id="ProcessOnPath1055" d="M12.0 3.8990363547948754L0.0 7.798072709589751V0.0Z" stroke="#323232" stroke-width="2.0" fill="#323232" transform="matrix(1.0,0.0,0.0,1.0,0.0,0.0)"/></marker><marker id="ProcessOnMarker1064" markerUnits="userSpaceOnUse" orient="auto" markerWidth="16.23606797749979" markerHeight="10.550836550532098" viewBox="-1.0 -1.3763819204711736 16.23606797749979 10.550836550532098" refX="-1.0" refY="3.8990363547948754"><path id="ProcessOnPath1065" d="M12.0 3.8990363547948754L0.0 7.798072709589751V0.0Z" stroke="#323232" stroke-width="2.0" fill="#323232" transform="matrix(1.0,0.0,0.0,1.0,0.0,0.0)"/></marker><marker id="ProcessOnMarker1073" markerUnits="userSpaceOnUse" orient="auto" markerWidth="16.23606797749979" markerHeight="10.550836550532098" viewBox="-1.0 -1.3763819204711736 16.23606797749979 10.550836550532098" refX="-1.0" refY="3.8990363547948754"><path id="ProcessOnPath1074" d="M12.0 3.8990363547948754L0.0 7.798072709589751V0.0Z" stroke="#323232" stroke-width="2.0" fill="#323232" transform="matrix(1.0,0.0,0.0,1.0,0.0,0.0)"/></marker><marker id="ProcessOnMarker1080" markerUnits="userSpaceOnUse" orient="auto" markerWidth="16.23606797749979" markerHeight="10.550836550532098" viewBox="-1.0 -1.3763819204711736 16.23606797749979 10.550836550532098" refX="-1.0" refY="3.8990363547948754"><path id="ProcessOnPath1081" d="M12.0 3.8990363547948754L0.0 7.798072709589751V0.0Z" stroke="#323232" stroke-width="2.0" fill="#323232" transform="matrix(1.0,0.0,0.0,1.0,0.0,0.0)"/></marker><marker id="ProcessOnMarker1092" markerUnits="userSpaceOnUse" orient="auto" markerWidth="16.23606797749979" markerHeight="10.550836550532098" viewBox="-1.0 -1.3763819204711736 16.23606797749979 10.550836550532098" refX="-1.0" refY="3.8990363547948754"><path id="ProcessOnPath1093" d="M12.0 3.8990363547948754L0.0 7.798072709589751V0.0Z" stroke="#323232" stroke-width="2.0" fill="#323232" transform="matrix(1.0,0.0,0.0,1.0,0.0,0.0)"/></marker><marker id="ProcessOnMarker1100" markerUnits="userSpaceOnUse" orient="auto" markerWidth="16.23606797749979" markerHeight="10.550836550532098" viewBox="-1.0 -1.3763819204711736 16.23606797749979 10.550836550532098" refX="-1.0" refY="3.8990363547948754"><path id="ProcessOnPath1101" d="M12.0 3.8990363547948754L0.0 7.798072709589751V0.0Z" stroke="#323232" stroke-width="2.0" fill="#323232" transform="matrix(1.0,0.0,0.0,1.0,0.0,0.0)"/></marker></defs><g id="ProcessOnG1002"><path id="ProcessOnPath1003" d="M52.85514831542969 11.875H741.8551483154297V537.875H52.85514831542969V11.875Z" fill="none"/><g id="ProcessOnG1004"><g id="ProcessOnG1005" transform="matrix(1.0,0.0,0.0,1.0,72.85514831542969,134.875)" opacity="1.0"><path id="ProcessOnPath1006" d="M0.0 20.0C0.0 -6.666666666666667 40.0 -6.666666666666667 40.0 20.0C40.0 46.666666666666664 0.0 46.666666666666664 0.0 20.0Z" stroke="none" stroke-width="0.0" stroke-dasharray="none" opacity="1.0" fill="#323232"/></g><g id="ProcessOnG1007" transform="matrix(1.0,0.0,0.0,1.0,681.8551483154297,125.875)" opacity="1.0"><path id="ProcessOnPath1008" d="M0.0 20.0C0.0 -6.666666666666667 40.0 -6.666666666666667 40.0 20.0C40.0 46.666666666666664 0.0 46.666666666666664 0.0 20.0Z" stroke="#323232" stroke-width="4.0" stroke-dasharray="none" opacity="1.0" fill="#ffffff"/><path id="ProcessOnPath1009" d="M10.0 20.0C10.0 6.666666666666666 30.0 6.666666666666666 30.0 20.0C30.0 33.333333333333336 10.0 33.333333333333336 10.0 20.0Z" stroke="none" stroke-width="0.0" stroke-dasharray="none" opacity="1.0" fill="#323232"/><path id="ProcessOnPath1010" d="M0.0 20.0C0.0 -6.666666666666667 40.0 -6.666666666666667 40.0 20.0C40.0 46.666666666666664 0.0 46.666666666666664 0.0 20.0Z" stroke="none" stroke-width="0.0" stroke-dasharray="none" opacity="1.0" fill="none"/></g><g id="ProcessOnG1011" transform="matrix(1.0,0.0,0.0,1.0,315.8551483154297,31.875)" opacity="1.0"><path id="ProcessOnPath1012" d="M0.0 18.0Q0.0 0.0 18.0 0.0L82.0 0.0Q100.0 0.0 100.0 18.0L100.0 52.0Q100.0 70.0 82.0 70.0L18.0 70.0Q0.0 70.0 0.0 52.0L0.0 18.0Z" stroke="#323232" stroke-width="2.0" stroke-dasharray="none" opacity="1.0" fill="#ffffff"/><g id="ProcessOnG1013" transform="matrix(1.0,0.0,0.0,1.0,10.0,18.75)"><text id="ProcessOnText1014" fill="#000000" font-size="13" x="39.0" y="13.325" font-family="微软雅黑" font-weight="normal" font-style="normal" text-decoration="none" family="微软雅黑" text-anchor="middle" size="13">transient</text><text id="ProcessOnText1015" fill="#000000" font-size="13" x="39.0" y="29.575" font-family="微软雅黑" font-weight="normal" font-style="normal" text-decoration="none" family="微软雅黑" text-anchor="middle" size="13">瞬时状态</text></g></g><g id="ProcessOnG1016"><path id="ProcessOnPath1017" d="M106.85514831542969 140.875C190.4551483154297 111.275 227.16963653362848 66.875 300.6190803379299 66.875" stroke="#323232" stroke-width="2.0" stroke-dasharray="none" fill="none" marker-end="url(#ProcessOnMarker1018)"/><g id="ProcessOnG1020" transform="matrix(1.0,0.0,0.0,1.0,207.54357290006678,84.65)"><path id="ProcessOnPath1021" d="M0 0H25.0V16.25H0Z" fill="#fff" transform="matrix(1.0,0.0,0.0,1.0,-12.5,0.0)"/><text id="ProcessOnText1022" fill="#ff0000" font-size="13" x="0.0" y="13.325" font-family="微软雅黑" font-weight="normal" font-style="normal" text-decoration="none" family="微软雅黑" text-anchor="middle" size="13">new</text></g></g><g id="ProcessOnG1023" transform="matrix(1.0,0.0,0.0,1.0,310.8551483154297,254.875)" opacity="1.0"><path id="ProcessOnPath1024" d="M0.0 18.0Q0.0 0.0 18.0 0.0L82.0 0.0Q100.0 0.0 100.0 18.0L100.0 52.0Q100.0 70.0 82.0 70.0L18.0 70.0Q0.0 70.0 0.0 52.0L0.0 18.0Z" stroke="#323232" stroke-width="2.0" stroke-dasharray="none" opacity="1.0" fill="#ffffff"/><g id="ProcessOnG1025" transform="matrix(1.0,0.0,0.0,1.0,10.0,18.75)"><text id="ProcessOnText1026" fill="#000000" font-size="13" x="39.0" y="13.325" font-family="微软雅黑" font-weight="normal" font-style="normal" text-decoration="none" family="微软雅黑" text-anchor="middle" size="13">persistent</text><text id="ProcessOnText1027" fill="#000000" font-size="13" x="39.0" y="29.575" font-family="微软雅黑" font-weight="normal" font-style="normal" text-decoration="none" family="微软雅黑" text-anchor="middle" size="13">持久化状态</text></g></g><g id="ProcessOnG1028"><path id="ProcessOnPath1029" d="M359.8551483154297 102.875L359.8551483154297 171.7332592010498L359.8551483154297 171.7332592010498L359.8551483154297 225.3554504245998" stroke="#323232" stroke-width="2.0" stroke-dasharray="none" fill="none" marker-end="url(#ProcessOnMarker1030)"/><g id="ProcessOnG1032" transform="matrix(1.0,0.0,0.0,1.0,359.8551483154297,131.6152252122999)"><path id="ProcessOnPath1033" d="M0 0H96.0V65.0H0Z" fill="#fff" transform="matrix(1.0,0.0,0.0,1.0,-48.0,0.0)"/><text id="ProcessOnText1034" fill="#000000" font-size="13" x="0.0" y="13.325" font-family="微软雅黑" font-weight="normal" font-style="normal" text-decoration="none" family="微软雅黑" text-anchor="middle" size="13">save()</text><text id="ProcessOnText1035" fill="#000000" font-size="13" x="0.0" y="29.575" font-family="微软雅黑" font-weight="normal" font-style="normal" text-decoration="none" family="微软雅黑" text-anchor="middle" size="13">saveOrUpdate()</text><text id="ProcessOnText1036" fill="#000000" font-size="13" x="0.0" y="45.825" font-family="微软雅黑" font-weight="normal" font-style="normal" text-decoration="none" family="微软雅黑" text-anchor="middle" size="13">persist()</text><text id="ProcessOnText1037" fill="#000000" font-size="13" x="0.0" y="62.075" font-family="微软雅黑" font-weight="normal" font-style="normal" text-decoration="none" family="微软雅黑" text-anchor="middle" size="13">merge()</text></g></g><g id="ProcessOnG1038" transform="matrix(1.0,0.0,0.0,1.0,310.8551483154297,447.875)" opacity="1.0"><path id="ProcessOnPath1039" d="M0.0 18.0Q0.0 0.0 18.0 0.0L82.0 0.0Q100.0 0.0 100.0 18.0L100.0 52.0Q100.0 70.0 82.0 70.0L18.0 70.0Q0.0 70.0 0.0 52.0L0.0 18.0Z" stroke="#323232" stroke-width="2.0" stroke-dasharray="none" opacity="1.0" fill="#ffffff"/><g id="ProcessOnG1040" transform="matrix(1.0,0.0,0.0,1.0,10.0,18.75)"><text id="ProcessOnText1041" fill="#000000" font-size="13" x="39.0" y="13.325" font-family="微软雅黑" font-weight="normal" font-style="normal" text-decoration="none" family="微软雅黑" text-anchor="middle" size="13">detached</text><text id="ProcessOnText1042" fill="#000000" font-size="13" x="39.0" y="29.575" font-family="微软雅黑" font-weight="normal" font-style="normal" text-decoration="none" family="微软雅黑" text-anchor="middle" size="13">脱管状态</text></g></g><g id="ProcessOnG1043"><path id="ProcessOnPath1044" d="M360.8551483154297 324.875L360.8551483154297 386.375L360.8551483154297 386.375L360.8551483154297 432.6389320225002" stroke="#323232" stroke-width="2.0" stroke-dasharray="none" fill="none" marker-end="url(#ProcessOnMarker1045)"/><g id="ProcessOnG1047" transform="matrix(1.0,0.0,0.0,1.0,360.8551483154297,354.38196601125014)"><path id="ProcessOnPath1048" d="M0 0H39.0V48.75H0Z" fill="#fff" transform="matrix(1.0,0.0,0.0,1.0,-19.5,0.0)"/><text id="ProcessOnText1049" fill="#000000" font-size="13" x="0.0" y="13.325" font-family="微软雅黑" font-weight="normal" font-style="normal" text-decoration="none" family="微软雅黑" text-anchor="middle" size="13">close()</text><text id="ProcessOnText1050" fill="#000000" font-size="13" x="0.0" y="29.575" font-family="微软雅黑" font-weight="normal" font-style="normal" text-decoration="none" family="微软雅黑" text-anchor="middle" size="13">clear()</text><text id="ProcessOnText1051" fill="#000000" font-size="13" x="0.0" y="45.825" font-family="微软雅黑" font-weight="normal" font-style="normal" text-decoration="none" family="微软雅黑" text-anchor="middle" size="13">evict()</text></g></g><g id="ProcessOnG1052"><path id="ProcessOnPath1053" d="M94.85514831542969 151.875C181.25514831542966 207.075 208.32710337161933 289.875 295.6190803379299 289.875" stroke="#323232" stroke-width="2.0" stroke-dasharray="none" fill="none" marker-end="url(#ProcessOnMarker1054)"/><g id="ProcessOnG1056" transform="matrix(1.0,0.0,0.0,1.0,194.9026229643133,209.075)"><path id="ProcessOnPath1057" d="M0 0H117.0V65.0H0Z" fill="#fff" transform="matrix(1.0,0.0,0.0,1.0,-58.5,0.0)"/><text id="ProcessOnText1058" fill="#000000" font-size="13" x="0.0" y="13.325" font-family="微软雅黑" font-weight="normal" font-style="normal" text-decoration="none" family="微软雅黑" text-anchor="middle" size="13">get()/load()</text><text id="ProcessOnText1059" fill="#000000" font-size="13" x="0.0" y="29.575" font-family="微软雅黑" font-weight="normal" font-style="normal" text-decoration="none" family="微软雅黑" text-anchor="middle" size="13">query.list()</text><text id="ProcessOnText1060" fill="#000000" font-size="13" x="0.0" y="45.825" font-family="微软雅黑" font-weight="normal" font-style="normal" text-decoration="none" family="微软雅黑" text-anchor="middle" size="13">query.uniqeResult()</text><text id="ProcessOnText1061" fill="#000000" font-size="13" x="0.0" y="62.075" font-family="微软雅黑" font-weight="normal" font-style="normal" text-decoration="none" family="微软雅黑" text-anchor="middle" size="13">find()</text></g></g><g id="ProcessOnG1062"><path id="ProcessOnPath1063" d="M410.8551483154297 482.875C488.0551483154297 482.875 488.0551483154297 289.875 426.09121629292946 289.875" stroke="#323232" stroke-width="2.0" stroke-dasharray="none" fill="none" marker-end="url(#ProcessOnMarker1064)"/><g id="ProcessOnG1066" transform="matrix(1.0,0.0,0.0,1.0,470.65965681261713,362.0)"><path id="ProcessOnPath1067" d="M0 0H96.00000000000006V48.75H0Z" fill="#fff" transform="matrix(1.0,0.0,0.0,1.0,-48.00000000000003,0.0)"/><text id="ProcessOnText1068" fill="#000000" font-size="13" x="0.0" y="13.325" font-family="微软雅黑" font-weight="normal" font-style="normal" text-decoration="none" family="微软雅黑" text-anchor="middle" size="13">update()</text><text id="ProcessOnText1069" fill="#000000" font-size="13" x="0.0" y="29.575" font-family="微软雅黑" font-weight="normal" font-style="normal" text-decoration="none" family="微软雅黑" text-anchor="middle" size="13">saveOrUpdate()</text><text id="ProcessOnText1070" fill="#000000" font-size="13" x="0.0" y="45.825" font-family="微软雅黑" font-weight="normal" font-style="normal" text-decoration="none" family="微软雅黑" text-anchor="middle" size="13">merge()</text></g></g><g id="ProcessOnG1071"><path id="ProcessOnPath1072" d="M419.22023010253906 481.35119247436523C582.5803527832031 470.5915222167969 701.8551483154297 335.30119632693413 701.8551483154297 181.1110679774998" stroke="#323232" stroke-width="2.0" stroke-dasharray="none" fill="none" marker-end="url(#ProcessOnMarker1073)"/><g id="ProcessOnG1075" transform="matrix(1.0,0.0,0.0,1.0,621.7977352142334,376.89255201038225)"><path id="ProcessOnPath1076" d="M0 0H19.0V16.25H0Z" fill="#fff" transform="matrix(1.0,0.0,0.0,1.0,-9.5,0.0)"/><text id="ProcessOnText1077" fill="#000000" font-size="13" x="0.0" y="13.325" font-family="微软雅黑" font-weight="normal" font-style="normal" text-decoration="none" family="微软雅黑" text-anchor="middle" size="13">GC</text></g></g><g id="ProcessOnG1078"><path id="ProcessOnPath1079" d="M410.22023010253906 67.12896728515625C524.2202301025391 73.12896728515625 632.2202301025391 36.12896728515625 680.1723510912924 118.80598109546109" stroke="#323232" stroke-width="2.0" stroke-dasharray="none" fill="none" marker-end="url(#ProcessOnMarker1080)"/><g id="ProcessOnG1082" transform="matrix(1.0,0.0,0.0,1.0,569.9642452261332,56.08859401144436)"><path id="ProcessOnPath1083" d="M0 0H19.0V16.25H0Z" fill="#fff" transform="matrix(1.0,0.0,0.0,1.0,-9.5,0.0)"/><text id="ProcessOnText1084" fill="#000000" font-size="13" x="0.0" y="13.325" font-family="微软雅黑" font-weight="normal" font-style="normal" text-decoration="none" family="微软雅黑" text-anchor="middle" size="13">GC</text></g></g><g id="ProcessOnG1085" transform="matrix(1.0,0.0,0.0,1.0,503.22023010253906,125.875)" opacity="1.0"><path id="ProcessOnPath1086" d="M0.0 18.0Q0.0 0.0 18.0 0.0L82.0 0.0Q100.0 0.0 100.0 18.0L100.0 52.0Q100.0 70.0 82.0 70.0L18.0 70.0Q0.0 70.0 0.0 52.0L0.0 18.0Z" stroke="#323232" stroke-width="2.0" stroke-dasharray="none" opacity="1.0" fill="#ffffff"/><g id="ProcessOnG1087" transform="matrix(1.0,0.0,0.0,1.0,10.0,18.75)"><text id="ProcessOnText1088" fill="#000000" font-size="13" x="39.0" y="13.325" font-family="微软雅黑" font-weight="normal" font-style="normal" text-decoration="none" family="微软雅黑" text-anchor="middle" size="13">remove</text><text id="ProcessOnText1089" fill="#000000" font-size="13" x="39.0" y="29.575" font-family="微软雅黑" font-weight="normal" font-style="normal" text-decoration="none" family="微软雅黑" text-anchor="middle" size="13">删除状态</text></g></g><g id="ProcessOnG1090"><path id="ProcessOnPath1091" d="M413.22023010253906 281.35119247436523C473.22023010253906 260.35119247436523 452.22023010253906 168.35119247436523 480.00061576696373 169.64330343550125" stroke="#323232" stroke-width="2.0" stroke-dasharray="none" fill="none" marker-end="url(#ProcessOnMarker1092)"/><g id="ProcessOnG1094" transform="matrix(1.0,0.0,0.0,1.0,458.69277831059213,200.88770634450725)"><path id="ProcessOnPath1095" d="M0 0H54.0V32.5H0Z" fill="#fff" transform="matrix(1.0,0.0,0.0,1.0,-27.0,0.0)"/><text id="ProcessOnText1096" fill="#000000" font-size="13" x="0.0" y="13.325" font-family="微软雅黑" font-weight="normal" font-style="normal" text-decoration="none" family="微软雅黑" text-anchor="middle" size="13">delete()</text><text id="ProcessOnText1097" fill="#000000" font-size="13" x="0.0" y="29.575" font-family="微软雅黑" font-weight="normal" font-style="normal" text-decoration="none" family="微软雅黑" text-anchor="middle" size="13">remove()</text></g></g><g id="ProcessOnG1098"><path id="ProcessOnPath1099" d="M603.2202301025391 160.875C635.2413490395106 160.875 649.8340293784581 145.875 666.6190803379299 145.875" stroke="#323232" stroke-width="2.0" stroke-dasharray="none" fill="none" marker-end="url(#ProcessOnMarker1100)"/><g id="ProcessOnG1102" transform="matrix(1.0,0.0,0.0,1.0,640.6331807117969,145.25)"><path id="ProcessOnPath1103" d="M0 0H19.0V16.25H0Z" fill="#fff" transform="matrix(1.0,0.0,0.0,1.0,-9.5,0.0)"/><text id="ProcessOnText1104" fill="#000000" font-size="13" x="0.0" y="13.325" font-family="微软雅黑" font-weight="normal" font-style="normal" text-decoration="none" family="微软雅黑" text-anchor="middle" size="13">GC</text></g></g></g></g></svg>
