<?xml version="1.0" encoding="UTF-8" standalone="no"?>
<!DOCTYPE svg PUBLIC "-//W3C//DTD SVG 1.1//EN"
 "http://www.w3.org/Graphics/SVG/1.1/DTD/svg11.dtd">
<!-- Generated by graphviz version 2.38.0 (20140413.2041)
 -->
<!-- Title: FileUpload Pages: 1 -->
<svg width="152pt" height="175pt"
 viewBox="0.00 0.00 152.00 175.00" xmlns="http://www.w3.org/2000/svg" xmlns:xlink="http://www.w3.org/1999/xlink">
<g id="graph0" class="graph" transform="scale(1 1) rotate(0) translate(4 171)">
<title>FileUpload</title>
<polygon fill="white" stroke="none" points="-4,4 -4,-171 148,-171 148,4 -4,4"/>
<text text-anchor="middle" x="72" y="-7.8" font-family="Times New Roman,serif" font-size="14.00">File Upload</text>
<!-- 文件上传 -->
<g id="node1" class="node"><title>文件上传</title>
<ellipse fill="none" stroke="black" cx="27" cy="-95" rx="27" ry="18"/>
<text text-anchor="middle" x="27" y="-91.3" font-family="微软雅黑" font-size="14.00">文件上传</text>
</g>
<!-- 不要手动解析 -->
<g id="node2" class="node"><title>不要手动解析</title>
<ellipse fill="none" stroke="black" cx="117" cy="-149" rx="27" ry="18"/>
<text text-anchor="middle" x="117" y="-145.3" font-family="微软雅黑" font-size="14.00">不要手动解析</text>
</g>
<!-- 文件上传&#45;&gt;不要手动解析 -->
<g id="edge1" class="edge"><title>文件上传&#45;&gt;不要手动解析</title>
<path fill="none" stroke="black" d="M47.5301,-106.984C59.3788,-114.255 74.6989,-123.656 87.8424,-131.721"/>
<polygon fill="black" stroke="black" points="86.1707,-134.802 96.5245,-137.049 89.8319,-128.836 86.1707,-134.802"/>
</g>
<!-- 优先使用内置的 MultiPart API -->
<g id="node3" class="node"><title>优先使用内置的 MultiPart API</title>
<ellipse fill="none" stroke="black" cx="117" cy="-95" rx="27" ry="18"/>
<text text-anchor="middle" x="117" y="-91.3" font-family="微软雅黑" font-size="14.00">优先使用内置的 MultiPart API</text>
</g>
<!-- 文件上传&#45;&gt;优先使用内置的 MultiPart API -->
<g id="edge2" class="edge"><title>文件上传&#45;&gt;优先使用内置的 MultiPart API</title>
<path fill="none" stroke="black" d="M54.4029,-95C62.3932,-95 71.3106,-95 79.8241,-95"/>
<polygon fill="black" stroke="black" points="79.919,-98.5001 89.919,-95 79.919,-91.5001 79.919,-98.5001"/>
</g>
<!-- 使用 &#160;Apache Commons FileUpload -->
<g id="node4" class="node"><title>使用 &#160;Apache Commons FileUpload</title>
<ellipse fill="none" stroke="black" cx="117" cy="-41" rx="27" ry="18"/>
<text text-anchor="middle" x="117" y="-37.3" font-family="微软雅黑" font-size="14.00">使用 &#160;Apache Commons FileUpload</text>
</g>
<!-- 文件上传&#45;&gt;使用 &#160;Apache Commons FileUpload -->
<g id="edge3" class="edge"><title>文件上传&#45;&gt;使用 &#160;Apache Commons FileUpload</title>
<path fill="none" stroke="black" d="M47.5301,-83.0156C59.3788,-75.7448 74.6989,-66.3438 87.8424,-58.2785"/>
<polygon fill="black" stroke="black" points="89.8319,-61.1642 96.5245,-52.9508 86.1707,-55.1979 89.8319,-61.1642"/>
</g>
</g>
</svg>
