<?xml version="1.0" encoding="UTF-8" standalone="no"?>
<!DOCTYPE svg PUBLIC "-//W3C//DTD SVG 1.1//EN"
 "http://www.w3.org/Graphics/SVG/1.1/DTD/svg11.dtd">
<!-- Generated by graphviz version 2.38.0 (20140413.2041)
 -->
<!-- Title: G Pages: 1 -->
<svg width="310pt" height="125pt"
 viewBox="0.00 0.00 310.08 125.00" xmlns="http://www.w3.org/2000/svg" xmlns:xlink="http://www.w3.org/1999/xlink">
<g id="graph0" class="graph" transform="scale(1 1) rotate(0) translate(4 121)">
<title>G</title>
<polygon fill="white" stroke="none" points="-4,4 -4,-121 306.08,-121 306.08,4 -4,4"/>
<!-- 读书笔记 -->
<g id="node1" class="node"><title>读书笔记</title>
<ellipse fill="none" stroke="black" cx="47.4458" cy="-45" rx="47.3916" ry="18"/>
<text text-anchor="middle" x="47.4458" y="-41.3" font-family="微软雅黑" font-size="14.00">读书笔记</text>
</g>
<!-- 预习 -->
<g id="node2" class="node"><title>预习</title>
<ellipse fill="none" stroke="black" cx="160.139" cy="-72" rx="29.4969" ry="18"/>
<text text-anchor="middle" x="160.139" y="-68.3" font-family="微软雅黑" font-size="14.00">预习</text>
</g>
<!-- 读书笔记&#45;&gt;预习 -->
<g id="edge1" class="edge"><title>读书笔记&#45;&gt;预习</title>
<path fill="none" stroke="black" d="M87.7837,-54.5952C99.2022,-57.3804 111.615,-60.4082 122.839,-63.1457"/>
<polygon fill="black" stroke="black" points="122.204,-66.5934 132.748,-65.5628 123.863,-59.7928 122.204,-66.5934"/>
</g>
<!-- 复习 -->
<g id="node3" class="node"><title>复习</title>
<ellipse fill="none" stroke="black" cx="160.139" cy="-18" rx="29.4969" ry="18"/>
<text text-anchor="middle" x="160.139" y="-14.3" font-family="微软雅黑" font-size="14.00">复习</text>
</g>
<!-- 读书笔记&#45;&gt;复习 -->
<g id="edge2" class="edge"><title>读书笔记&#45;&gt;复习</title>
<path fill="none" stroke="black" d="M87.7837,-35.4048C99.2022,-32.6196 111.615,-29.5918 122.839,-26.8543"/>
<polygon fill="black" stroke="black" points="123.863,-30.2072 132.748,-24.4372 122.204,-23.4066 123.863,-30.2072"/>
</g>
<!-- 大声读 -->
<g id="node4" class="node"><title>大声读</title>
<ellipse fill="none" stroke="black" cx="263.733" cy="-99" rx="38.1938" ry="18"/>
<text text-anchor="middle" x="263.733" y="-95.3" font-family="微软雅黑" font-size="14.00">大声读</text>
</g>
<!-- 预习&#45;&gt;大声读 -->
<g id="edge3" class="edge"><title>预习&#45;&gt;大声读</title>
<path fill="none" stroke="black" d="M187.302,-78.9532C197.397,-81.636 209.204,-84.774 220.44,-87.7601"/>
<polygon fill="black" stroke="black" points="219.546,-91.144 230.11,-90.3299 221.344,-84.3788 219.546,-91.144"/>
</g>
<!-- 失望 -->
<g id="node5" class="node"><title>失望</title>
<ellipse fill="none" stroke="black" cx="263.733" cy="-45" rx="29.4969" ry="18"/>
<text text-anchor="middle" x="263.733" y="-41.3" font-family="微软雅黑" font-size="14.00">失望</text>
</g>
<!-- 预习&#45;&gt;失望 -->
<g id="edge4" class="edge"><title>预习&#45;&gt;失望</title>
<path fill="none" stroke="black" d="M187.302,-65.0468C199.271,-61.866 213.647,-58.0453 226.624,-54.5964"/>
<polygon fill="black" stroke="black" points="227.893,-57.8807 236.659,-51.9296 226.095,-51.1156 227.893,-57.8807"/>
</g>
</g>
</svg>
