<?xml version="1.0" encoding="UTF-8" standalone="no"?>
<!DOCTYPE svg PUBLIC "-//W3C//DTD SVG 1.1//EN"
 "http://www.w3.org/Graphics/SVG/1.1/DTD/svg11.dtd">
<!-- Generated by graphviz version 2.40.1 (20161225.0304)
 -->
<!-- Title: os_history Pages: 1 -->
<svg width="704pt" height="624pt"
 viewBox="0.00 0.00 704.00 624.00" xmlns="http://www.w3.org/2000/svg" xmlns:xlink="http://www.w3.org/1999/xlink">
<g id="graph0" class="graph" transform="scale(1 1) rotate(0) translate(4 620)">
<title>os_history</title>
<polygon fill="#ffffff" stroke="transparent" points="-4,4 -4,-620 700,-620 700,4 -4,4"/>
<!-- OS -->
<g id="node1" class="node">
<title>OS</title>
<path fill="#f0f8ff" stroke="#add8e6" d="M12,-275.5C12,-275.5 42,-275.5 42,-275.5 48,-275.5 54,-281.5 54,-287.5 54,-287.5 54,-299.5 54,-299.5 54,-305.5 48,-311.5 42,-311.5 42,-311.5 12,-311.5 12,-311.5 6,-311.5 0,-305.5 0,-299.5 0,-299.5 0,-287.5 0,-287.5 0,-281.5 6,-275.5 12,-275.5"/>
<text text-anchor="middle" x="27" y="-291" font-family="SimSun" font-size="10.00" fill="#000000">OS</text>
</g>
<!-- Windows -->
<g id="node2" class="node">
<title>Windows</title>
<path fill="#f0f8ff" stroke="#add8e6" d="M85,-303.5C85,-303.5 117,-303.5 117,-303.5 123,-303.5 129,-309.5 129,-315.5 129,-315.5 129,-327.5 129,-327.5 129,-333.5 123,-339.5 117,-339.5 117,-339.5 85,-339.5 85,-339.5 79,-339.5 73,-333.5 73,-327.5 73,-327.5 73,-315.5 73,-315.5 73,-309.5 79,-303.5 85,-303.5"/>
<text text-anchor="middle" x="101" y="-324.5" font-family="SimSun" font-size="10.00" fill="#000000">Windows</text>
<text text-anchor="middle" x="101" y="-313.5" font-family="SimSun" font-size="10.00" fill="#000000">Microsoft</text>
</g>
<!-- OS&#45;&gt;Windows -->
<g id="edge1" class="edge">
<title>OS&#45;&gt;Windows</title>
<path fill="none" stroke="#c0c0c0" d="M54.1347,-303.7672C58.6179,-305.4635 63.3097,-307.2388 67.9193,-308.983"/>
<polygon fill="#c0c0c0" stroke="#c0c0c0" points="72.8754,-310.8582 67.4027,-311.1931 70.5372,-309.9735 68.1989,-309.0887 68.1989,-309.0887 68.1989,-309.0887 70.5372,-309.9735 68.9952,-306.9843 72.8754,-310.8582 72.8754,-310.8582"/>
</g>
<!-- UNIX -->
<g id="node3" class="node">
<title>UNIX</title>
<path fill="#f0f8ff" stroke="#add8e6" d="M86,-248.5C86,-248.5 116,-248.5 116,-248.5 122,-248.5 128,-254.5 128,-260.5 128,-260.5 128,-272.5 128,-272.5 128,-278.5 122,-284.5 116,-284.5 116,-284.5 86,-284.5 86,-284.5 80,-284.5 74,-278.5 74,-272.5 74,-272.5 74,-260.5 74,-260.5 74,-254.5 80,-248.5 86,-248.5"/>
<text text-anchor="middle" x="101" y="-264" font-family="SimSun" font-size="10.00" fill="#000000">UNIX</text>
</g>
<!-- OS&#45;&gt;UNIX -->
<g id="edge2" class="edge">
<title>OS&#45;&gt;UNIX</title>
<path fill="none" stroke="#c0c0c0" d="M54.1347,-283.5995C58.9608,-281.8386 64.0286,-279.9896 68.9754,-278.1846"/>
<polygon fill="#c0c0c0" stroke="#c0c0c0" points="73.8686,-276.3993 69.9427,-280.2269 71.52,-277.2562 69.1715,-278.1132 69.1715,-278.1132 69.1715,-278.1132 71.52,-277.2562 68.4002,-275.9995 73.8686,-276.3993 73.8686,-276.3993"/>
</g>
<!-- TM -->
<g id="node4" class="node">
<title>TM</title>
<path fill="#f0f8ff" stroke="#add8e6" d="M380,-469.5C380,-469.5 410,-469.5 410,-469.5 416,-469.5 422,-475.5 422,-481.5 422,-481.5 422,-493.5 422,-493.5 422,-499.5 416,-505.5 410,-505.5 410,-505.5 380,-505.5 380,-505.5 374,-505.5 368,-499.5 368,-493.5 368,-493.5 368,-481.5 368,-481.5 368,-475.5 374,-469.5 380,-469.5"/>
<text text-anchor="middle" x="395" y="-485" font-family="SimSun" font-size="10.00" fill="#000000">TM</text>
</g>
<!-- UNIX&#45;&gt;TM -->
<g id="edge3" class="edge">
<title>UNIX&#45;&gt;TM</title>
<path fill="none" stroke="#c0c0c0" d="M121.9042,-284.5623C124.6017,-287.6521 127.0858,-291.0022 129,-294.5 137.9563,-310.8656 127.0634,-320.3858 138,-335.5 195.374,-414.7896 307.9071,-459.8013 363.0322,-477.9685"/>
<polygon fill="#c0c0c0" stroke="#c0c0c0" points="367.8634,-479.5402 362.4126,-480.1329 365.486,-478.7668 363.1087,-477.9933 363.1087,-477.9933 363.1087,-477.9933 365.486,-478.7668 363.8048,-475.8537 367.8634,-479.5402 367.8634,-479.5402"/>
<text text-anchor="middle" x="282" y="-459.3" font-family="SimSun" font-size="9.00" fill="#000000">拓展/商用</text>
</g>
<!-- BSD -->
<g id="node5" class="node">
<title>BSD</title>
<path fill="#f0f8ff" stroke="#add8e6" d="M267,-305.5C267,-305.5 297,-305.5 297,-305.5 303,-305.5 309,-311.5 309,-317.5 309,-317.5 309,-329.5 309,-329.5 309,-335.5 303,-341.5 297,-341.5 297,-341.5 267,-341.5 267,-341.5 261,-341.5 255,-335.5 255,-329.5 255,-329.5 255,-317.5 255,-317.5 255,-311.5 261,-305.5 267,-305.5"/>
<text text-anchor="middle" x="282" y="-321" font-family="SimSun" font-size="10.00" fill="#000000">BSD</text>
</g>
<!-- UNIX&#45;&gt;BSD -->
<g id="edge4" class="edge">
<title>UNIX&#45;&gt;BSD</title>
<path fill="none" stroke="#c0c0c0" d="M128.0671,-275.3155C131.4106,-276.3936 134.7826,-277.4756 138,-278.5 176.4563,-290.7446 220.7876,-304.5518 249.9895,-313.6046"/>
<polygon fill="#c0c0c0" stroke="#c0c0c0" points="254.9017,-315.1268 249.4597,-315.796 252.5137,-314.3868 250.1257,-313.6468 250.1257,-313.6468 250.1257,-313.6468 252.5137,-314.3868 250.7918,-311.4976 254.9017,-315.1268 254.9017,-315.1268"/>
<text text-anchor="middle" x="192" y="-324.3" font-family="SimSun" font-size="9.00" fill="#000000">开源版本</text>
<text text-anchor="middle" x="192" y="-314.3" font-family="SimSun" font-size="9.00" fill="#000000">(加州大学伯克利分校)</text>
</g>
<!-- Linux -->
<g id="node6" class="node">
<title>Linux</title>
<path fill="#f0f8ff" stroke="#add8e6" d="M267,-193.5C267,-193.5 297,-193.5 297,-193.5 303,-193.5 309,-199.5 309,-205.5 309,-205.5 309,-217.5 309,-217.5 309,-223.5 303,-229.5 297,-229.5 297,-229.5 267,-229.5 267,-229.5 261,-229.5 255,-223.5 255,-217.5 255,-217.5 255,-205.5 255,-205.5 255,-199.5 261,-193.5 267,-193.5"/>
<text text-anchor="middle" x="282" y="-209" font-family="SimSun" font-size="10.00" fill="#000000">Linux</text>
</g>
<!-- UNIX&#45;&gt;Linux -->
<g id="edge5" class="edge">
<title>UNIX&#45;&gt;Linux</title>
<path fill="none" stroke="#c0c0c0" d="M128.0975,-258.2659C160.6202,-248.3834 215.0964,-231.8298 249.7528,-221.2989"/>
<polygon fill="#c0c0c0" stroke="#c0c0c0" points="254.7172,-219.7903 250.5874,-223.3969 252.3252,-220.5172 249.9332,-221.2441 249.9332,-221.2441 249.9332,-221.2441 252.3252,-220.5172 249.279,-219.0913 254.7172,-219.7903 254.7172,-219.7903"/>
<text text-anchor="middle" x="192" y="-267.3" font-family="SimSun" font-size="9.00" fill="#000000">山寨版本</text>
<text text-anchor="middle" x="192" y="-257.3" font-family="SimSun" font-size="9.00" fill="#000000">(by Linus Torvalds)</text>
</g>
<!-- AIX(IBM) -->
<g id="node10" class="node">
<title>AIX(IBM)</title>
<path fill="#f0f8ff" stroke="#add8e6" d="M515.5,-579.5C515.5,-579.5 550.5,-579.5 550.5,-579.5 556.5,-579.5 562.5,-585.5 562.5,-591.5 562.5,-591.5 562.5,-603.5 562.5,-603.5 562.5,-609.5 556.5,-615.5 550.5,-615.5 550.5,-615.5 515.5,-615.5 515.5,-615.5 509.5,-615.5 503.5,-609.5 503.5,-603.5 503.5,-603.5 503.5,-591.5 503.5,-591.5 503.5,-585.5 509.5,-579.5 515.5,-579.5"/>
<text text-anchor="middle" x="533" y="-595" font-family="SimSun" font-size="10.00" fill="#000000">AIX(IBM)</text>
</g>
<!-- TM&#45;&gt;AIX(IBM) -->
<g id="edge10" class="edge">
<title>TM&#45;&gt;AIX(IBM)</title>
<path fill="none" stroke="#c0c0c0" d="M402.1519,-505.6812C410.4562,-524.5161 425.9,-553.5231 448,-570.5 462.5773,-581.698 481.9143,-588.3166 498.4615,-592.1949"/>
<polygon fill="#c0c0c0" stroke="#c0c0c0" points="503.4989,-593.3126 498.1303,-594.426 501.0583,-592.771 498.6176,-592.2295 498.6176,-592.2295 498.6176,-592.2295 501.0583,-592.771 499.105,-590.0329 503.4989,-593.3126 503.4989,-593.3126"/>
</g>
<!-- Solaris(Oracle) -->
<g id="node11" class="node">
<title>Solaris(Oracle)</title>
<path fill="#f0f8ff" stroke="#add8e6" d="M506.5,-524.5C506.5,-524.5 559.5,-524.5 559.5,-524.5 565.5,-524.5 571.5,-530.5 571.5,-536.5 571.5,-536.5 571.5,-548.5 571.5,-548.5 571.5,-554.5 565.5,-560.5 559.5,-560.5 559.5,-560.5 506.5,-560.5 506.5,-560.5 500.5,-560.5 494.5,-554.5 494.5,-548.5 494.5,-548.5 494.5,-536.5 494.5,-536.5 494.5,-530.5 500.5,-524.5 506.5,-524.5"/>
<text text-anchor="middle" x="533" y="-540" font-family="SimSun" font-size="10.00" fill="#000000">Solaris(Oracle)</text>
</g>
<!-- TM&#45;&gt;Solaris(Oracle) -->
<g id="edge11" class="edge">
<title>TM&#45;&gt;Solaris(Oracle)</title>
<path fill="none" stroke="#c0c0c0" d="M422.0578,-502.9854C430.2468,-507.3451 439.3618,-511.8804 448,-515.5 461.2273,-521.0426 476.0104,-526.109 489.4918,-530.3182"/>
<polygon fill="#c0c0c0" stroke="#c0c0c0" points="494.3944,-531.8294 488.9534,-532.5067 492.0053,-531.093 489.6163,-530.3565 489.6163,-530.3565 489.6163,-530.3565 492.0053,-531.093 490.2791,-528.2063 494.3944,-531.8294 494.3944,-531.8294"/>
</g>
<!-- MacOS(Apple) -->
<g id="node12" class="node">
<title>MacOS(Apple)</title>
<path fill="#f0f8ff" stroke="#add8e6" d="M506,-469.5C506,-469.5 560,-469.5 560,-469.5 566,-469.5 572,-475.5 572,-481.5 572,-481.5 572,-493.5 572,-493.5 572,-499.5 566,-505.5 560,-505.5 560,-505.5 506,-505.5 506,-505.5 500,-505.5 494,-499.5 494,-493.5 494,-493.5 494,-481.5 494,-481.5 494,-475.5 500,-469.5 506,-469.5"/>
<text text-anchor="middle" x="533" y="-485" font-family="SimSun" font-size="10.00" fill="#000000">MacOS(Apple)</text>
</g>
<!-- TM&#45;&gt;MacOS(Apple) -->
<g id="edge12" class="edge">
<title>TM&#45;&gt;MacOS(Apple)</title>
<path fill="none" stroke="#c0c0c0" d="M422.2644,-487.5C441.1715,-487.5 466.7756,-487.5 488.6011,-487.5"/>
<polygon fill="#c0c0c0" stroke="#c0c0c0" points="493.772,-487.5 488.7721,-489.7501 491.272,-487.5 488.772,-487.5001 488.772,-487.5001 488.772,-487.5001 491.272,-487.5 488.772,-485.2501 493.772,-487.5 493.772,-487.5"/>
</g>
<!-- HP&#45;UX(HP) -->
<g id="node13" class="node">
<title>HP&#45;UX(HP)</title>
<path fill="#f0f8ff" stroke="#add8e6" d="M512,-414.5C512,-414.5 554,-414.5 554,-414.5 560,-414.5 566,-420.5 566,-426.5 566,-426.5 566,-438.5 566,-438.5 566,-444.5 560,-450.5 554,-450.5 554,-450.5 512,-450.5 512,-450.5 506,-450.5 500,-444.5 500,-438.5 500,-438.5 500,-426.5 500,-426.5 500,-420.5 506,-414.5 512,-414.5"/>
<text text-anchor="middle" x="533" y="-430" font-family="SimSun" font-size="10.00" fill="#000000">HP&#45;UX(HP)</text>
</g>
<!-- TM&#45;&gt;HP&#45;UX(HP) -->
<g id="edge13" class="edge">
<title>TM&#45;&gt;HP&#45;UX(HP)</title>
<path fill="none" stroke="#c0c0c0" d="M422.132,-472.6728C430.323,-468.4718 439.4206,-464.0737 448,-460.5 463.0764,-454.2199 480.1029,-448.3763 494.9362,-443.6696"/>
<polygon fill="#c0c0c0" stroke="#c0c0c0" points="499.8765,-442.118 495.7805,-445.7629 497.4914,-442.8671 495.1063,-443.6163 495.1063,-443.6163 495.1063,-443.6163 497.4914,-442.8671 494.432,-441.4696 499.8765,-442.118 499.8765,-442.118"/>
</g>
<!-- BSD&#45;&gt;TM -->
<g id="edge6" class="edge">
<title>BSD&#45;&gt;TM</title>
<path fill="none" stroke="#c0c0c0" d="M294.5247,-341.6775C315.3123,-371.8471 356.8844,-432.1817 379.4923,-464.9933"/>
<polygon fill="#c0c0c0" stroke="#c0c0c0" points="382.4192,-469.2411 377.7294,-466.4004 381.0007,-467.1825 379.5822,-465.1238 379.5822,-465.1238 379.5822,-465.1238 381.0007,-467.1825 381.435,-463.8472 382.4192,-469.2411 382.4192,-469.2411"/>
</g>
<!-- FreeBSD -->
<g id="node7" class="node">
<title>FreeBSD</title>
<path fill="#f0f8ff" stroke="#add8e6" d="M380,-360.5C380,-360.5 410,-360.5 410,-360.5 416,-360.5 422,-366.5 422,-372.5 422,-372.5 422,-384.5 422,-384.5 422,-390.5 416,-396.5 410,-396.5 410,-396.5 380,-396.5 380,-396.5 374,-396.5 368,-390.5 368,-384.5 368,-384.5 368,-372.5 368,-372.5 368,-366.5 374,-360.5 380,-360.5"/>
<text text-anchor="middle" x="395" y="-376" font-family="SimSun" font-size="10.00" fill="#000000">FreeBSD</text>
</g>
<!-- BSD&#45;&gt;FreeBSD -->
<g id="edge7" class="edge">
<title>BSD&#45;&gt;FreeBSD</title>
<path fill="none" stroke="#c0c0c0" d="M309.0663,-336.6739C325.2998,-344.5751 346.0309,-354.6655 363.0637,-362.9558"/>
<polygon fill="#c0c0c0" stroke="#c0c0c0" points="367.7629,-365.243 362.2824,-365.0778 365.515,-364.1489 363.2671,-363.0548 363.2671,-363.0548 363.2671,-363.0548 365.515,-364.1489 364.2518,-361.0317 367.7629,-365.243 367.7629,-365.243"/>
</g>
<!-- OpenBSD -->
<g id="node8" class="node">
<title>OpenBSD</title>
<path fill="#f0f8ff" stroke="#add8e6" d="M377.5,-305.5C377.5,-305.5 412.5,-305.5 412.5,-305.5 418.5,-305.5 424.5,-311.5 424.5,-317.5 424.5,-317.5 424.5,-329.5 424.5,-329.5 424.5,-335.5 418.5,-341.5 412.5,-341.5 412.5,-341.5 377.5,-341.5 377.5,-341.5 371.5,-341.5 365.5,-335.5 365.5,-329.5 365.5,-329.5 365.5,-317.5 365.5,-317.5 365.5,-311.5 371.5,-305.5 377.5,-305.5"/>
<text text-anchor="middle" x="395" y="-321" font-family="SimSun" font-size="10.00" fill="#000000">OpenBSD</text>
</g>
<!-- BSD&#45;&gt;OpenBSD -->
<g id="edge8" class="edge">
<title>BSD&#45;&gt;OpenBSD</title>
<path fill="none" stroke="#c0c0c0" d="M309.0663,-323.5C324.451,-323.5 343.8752,-323.5 360.3627,-323.5"/>
<polygon fill="#c0c0c0" stroke="#c0c0c0" points="365.3775,-323.5 360.3775,-325.7501 362.8775,-323.5 360.3775,-323.5001 360.3775,-323.5001 360.3775,-323.5001 362.8775,-323.5 360.3774,-321.2501 365.3775,-323.5 365.3775,-323.5"/>
</g>
<!-- NetBSD -->
<g id="node9" class="node">
<title>NetBSD</title>
<path fill="#f0f8ff" stroke="#add8e6" d="M380,-250.5C380,-250.5 410,-250.5 410,-250.5 416,-250.5 422,-256.5 422,-262.5 422,-262.5 422,-274.5 422,-274.5 422,-280.5 416,-286.5 410,-286.5 410,-286.5 380,-286.5 380,-286.5 374,-286.5 368,-280.5 368,-274.5 368,-274.5 368,-262.5 368,-262.5 368,-256.5 374,-250.5 380,-250.5"/>
<text text-anchor="middle" x="395" y="-266" font-family="SimSun" font-size="10.00" fill="#000000">NetBSD</text>
</g>
<!-- BSD&#45;&gt;NetBSD -->
<g id="edge9" class="edge">
<title>BSD&#45;&gt;NetBSD</title>
<path fill="none" stroke="#c0c0c0" d="M309.0663,-310.3261C325.2998,-302.4249 346.0309,-292.3345 363.0637,-284.0442"/>
<polygon fill="#c0c0c0" stroke="#c0c0c0" points="367.7629,-281.757 364.2518,-285.9683 365.515,-282.8511 363.2671,-283.9452 363.2671,-283.9452 363.2671,-283.9452 365.515,-282.8511 362.2824,-281.9222 367.7629,-281.757 367.7629,-281.757"/>
</g>
<!-- linuxDist -->
<g id="node17" class="node">
<title>linuxDist</title>
<path fill="#f0f8ff" stroke="#add8e6" d="M491.5,-193.5C491.5,-193.5 574.5,-193.5 574.5,-193.5 580.5,-193.5 586.5,-199.5 586.5,-205.5 586.5,-205.5 586.5,-217.5 586.5,-217.5 586.5,-223.5 580.5,-229.5 574.5,-229.5 574.5,-229.5 491.5,-229.5 491.5,-229.5 485.5,-229.5 479.5,-223.5 479.5,-217.5 479.5,-217.5 479.5,-205.5 479.5,-205.5 479.5,-199.5 485.5,-193.5 491.5,-193.5"/>
<text text-anchor="middle" x="533" y="-209" font-family="SimSun" font-size="10.00" fill="#000000">GNU/Linux 发行版</text>
</g>
<!-- Linux&#45;&gt;linuxDist -->
<g id="edge17" class="edge">
<title>Linux&#45;&gt;linuxDist</title>
<path fill="none" stroke="#c0c0c0" d="M309.3392,-211.5C348.6478,-211.5 422.1142,-211.5 474.1066,-211.5"/>
<polygon fill="#c0c0c0" stroke="#c0c0c0" points="479.3852,-211.5 474.3852,-213.7501 476.8852,-211.5 474.3852,-211.5001 474.3852,-211.5001 474.3852,-211.5001 476.8852,-211.5 474.3851,-209.2501 479.3852,-211.5 479.3852,-211.5"/>
<text text-anchor="middle" x="395" y="-224.3" font-family="SimSun" font-size="9.00" fill="#000000">预装大量软件</text>
<text text-anchor="middle" x="395" y="-214.3" font-family="SimSun" font-size="9.00" fill="#000000">增强易用性</text>
</g>
<!-- GNU -->
<g id="node26" class="node">
<title>GNU</title>
<path fill="#f0f8ff" stroke="#add8e6" d="M380,-138.5C380,-138.5 410,-138.5 410,-138.5 416,-138.5 422,-144.5 422,-150.5 422,-150.5 422,-162.5 422,-162.5 422,-168.5 416,-174.5 410,-174.5 410,-174.5 380,-174.5 380,-174.5 374,-174.5 368,-168.5 368,-162.5 368,-162.5 368,-150.5 368,-150.5 368,-144.5 374,-138.5 380,-138.5"/>
<text text-anchor="middle" x="395" y="-154" font-family="SimSun" font-size="10.00" fill="#000000">GNU</text>
</g>
<!-- Linux&#45;&gt;GNU -->
<g id="edge26" class="edge">
<title>Linux&#45;&gt;GNU</title>
<path fill="none" stroke="#c0c0c0" d="M307.9634,-193.2928C311.2804,-191.2355 314.678,-189.2522 318,-187.5 332.1903,-180.0152 348.6005,-173.1777 362.6163,-167.84"/>
<polygon fill="#c0c0c0" stroke="#c0c0c0" points="367.6631,-165.9429 363.7746,-169.8084 365.323,-166.8226 362.9829,-167.7023 362.9829,-167.7023 362.9829,-167.7023 365.323,-166.8226 362.1911,-165.5962 367.6631,-165.9429 367.6631,-165.9429"/>
<text text-anchor="middle" x="335" y="-190.3" font-family="SimSun" font-size="9.00" fill="#000000">推动者</text>
</g>
<!-- FreeBSD_Desc -->
<g id="node14" class="node">
<title>FreeBSD_Desc</title>
<text text-anchor="middle" x="533" y="-375" font-family="SimSun" font-size="10.00" fill="#000000">稳定，高效，精于网络处理</text>
</g>
<!-- FreeBSD&#45;&gt;FreeBSD_Desc -->
<g id="edge14" class="edge">
<title>FreeBSD&#45;&gt;FreeBSD_Desc</title>
<path fill="none" stroke="#c0c0c0" d="M422.2644,-378.3024C428.5189,-378.2571 435.5062,-378.2065 442.8472,-378.1533"/>
<polygon fill="#c0c0c0" stroke="#c0c0c0" points="447.9813,-378.1161 442.9978,-380.4023 445.4814,-378.1342 442.9814,-378.1524 442.9814,-378.1524 442.9814,-378.1524 445.4814,-378.1342 442.9651,-375.9025 447.9813,-378.1161 447.9813,-378.1161"/>
</g>
<!-- OpenBSD_Desc -->
<g id="node15" class="node">
<title>OpenBSD_Desc</title>
<text text-anchor="middle" x="533" y="-321" font-family="SimSun" font-size="10.00" fill="#000000">号称最安全的操作系统</text>
</g>
<!-- OpenBSD&#45;&gt;OpenBSD_Desc -->
<g id="edge15" class="edge">
<title>OpenBSD&#45;&gt;OpenBSD_Desc</title>
<path fill="none" stroke="#c0c0c0" d="M424.6045,-323.5C433.9448,-323.5 444.7335,-323.5 455.8077,-323.5"/>
<polygon fill="#c0c0c0" stroke="#c0c0c0" points="460.9118,-323.5 455.9119,-325.7501 458.4118,-323.5 455.9118,-323.5001 455.9118,-323.5001 455.9118,-323.5001 458.4118,-323.5 455.9118,-321.2501 460.9118,-323.5 460.9118,-323.5"/>
</g>
<!-- NetBSD_Desc -->
<g id="node16" class="node">
<title>NetBSD_Desc</title>
<text text-anchor="middle" x="533" y="-266" font-family="SimSun" font-size="10.00" fill="#000000">可移植性强，适合嵌入式</text>
</g>
<!-- NetBSD&#45;&gt;NetBSD_Desc -->
<g id="edge16" class="edge">
<title>NetBSD&#45;&gt;NetBSD_Desc</title>
<path fill="none" stroke="#c0c0c0" d="M422.2644,-268.5C430.2912,-268.5 439.525,-268.5 449.1642,-268.5"/>
<polygon fill="#c0c0c0" stroke="#c0c0c0" points="454.2376,-268.5 449.2377,-270.7501 451.7376,-268.5 449.2376,-268.5001 449.2376,-268.5001 449.2376,-268.5001 451.7376,-268.5 449.2376,-266.2501 454.2376,-268.5 454.2376,-268.5"/>
</g>
<!-- Android -->
<g id="node18" class="node">
<title>Android</title>
<path fill="#f0f8ff" stroke="#add8e6" d="M651.5,-385.5C651.5,-385.5 681.5,-385.5 681.5,-385.5 687.5,-385.5 693.5,-391.5 693.5,-397.5 693.5,-397.5 693.5,-409.5 693.5,-409.5 693.5,-415.5 687.5,-421.5 681.5,-421.5 681.5,-421.5 651.5,-421.5 651.5,-421.5 645.5,-421.5 639.5,-415.5 639.5,-409.5 639.5,-409.5 639.5,-397.5 639.5,-397.5 639.5,-391.5 645.5,-385.5 651.5,-385.5"/>
<text text-anchor="middle" x="666.5" y="-401" font-family="SimSun" font-size="10.00" fill="#000000">Android</text>
</g>
<!-- linuxDist&#45;&gt;Android -->
<g id="edge18" class="edge">
<title>linuxDist&#45;&gt;Android</title>
<path fill="none" stroke="#c0c0c0" d="M586.6044,-220.6363C598.5172,-225.0831 609.9739,-231.689 618,-241.5 627.5914,-253.2244 629.9417,-363.0971 637,-376.5 637.8937,-378.197 638.938,-379.8422 640.0901,-381.4269"/>
<polygon fill="#c0c0c0" stroke="#c0c0c0" points="643.3617,-385.4749 638.4688,-383.0005 641.7902,-383.5305 640.2187,-381.5862 640.2187,-381.5862 640.2187,-381.5862 641.7902,-383.5305 641.9687,-380.1718 643.3617,-385.4749 643.3617,-385.4749"/>
</g>
<!-- Archlinux -->
<g id="node19" class="node">
<title>Archlinux</title>
<path fill="#f0f8ff" stroke="#add8e6" d="M649,-330.5C649,-330.5 684,-330.5 684,-330.5 690,-330.5 696,-336.5 696,-342.5 696,-342.5 696,-354.5 696,-354.5 696,-360.5 690,-366.5 684,-366.5 684,-366.5 649,-366.5 649,-366.5 643,-366.5 637,-360.5 637,-354.5 637,-354.5 637,-342.5 637,-342.5 637,-336.5 643,-330.5 649,-330.5"/>
<text text-anchor="middle" x="666.5" y="-346" font-family="SimSun" font-size="10.00" fill="#000000">Archlinux</text>
</g>
<!-- linuxDist&#45;&gt;Archlinux -->
<g id="edge19" class="edge">
<title>linuxDist&#45;&gt;Archlinux</title>
<path fill="none" stroke="#c0c0c0" d="M586.8578,-221.5085C598.4752,-225.9308 609.7341,-232.3069 618,-241.5 630.2171,-255.0875 627.7407,-305.7475 637,-321.5 637.9719,-323.1535 639.0776,-324.7645 640.2768,-326.323"/>
<polygon fill="#c0c0c0" stroke="#c0c0c0" points="643.6422,-330.3187 638.7002,-327.9439 642.0317,-328.4065 640.4212,-326.4944 640.4212,-326.4944 640.4212,-326.4944 642.0317,-328.4065 642.1421,-325.0449 643.6422,-330.3187 643.6422,-330.3187"/>
</g>
<!-- Debian -->
<g id="node20" class="node">
<title>Debian</title>
<path fill="#f0f8ff" stroke="#006400" d="M651.5,-275.5C651.5,-275.5 681.5,-275.5 681.5,-275.5 687.5,-275.5 693.5,-281.5 693.5,-287.5 693.5,-287.5 693.5,-299.5 693.5,-299.5 693.5,-305.5 687.5,-311.5 681.5,-311.5 681.5,-311.5 651.5,-311.5 651.5,-311.5 645.5,-311.5 639.5,-305.5 639.5,-299.5 639.5,-299.5 639.5,-287.5 639.5,-287.5 639.5,-281.5 645.5,-275.5 651.5,-275.5"/>
<text text-anchor="middle" x="666.5" y="-291" font-family="SimSun" font-size="10.00" fill="#000000">Debian</text>
</g>
<!-- linuxDist&#45;&gt;Debian -->
<g id="edge20" class="edge">
<title>linuxDist&#45;&gt;Debian</title>
<path fill="none" stroke="#c0c0c0" d="M586.6118,-225.0826C597.5939,-229.2911 608.6435,-234.6765 618,-241.5 629.2758,-249.7232 627.5924,-256.1916 637,-266.5 638.6117,-268.266 640.3237,-270.0455 642.0797,-271.8029"/>
<polygon fill="#c0c0c0" stroke="#c0c0c0" points="645.7281,-275.3677 640.5793,-273.4827 643.9399,-273.6205 642.1518,-271.8733 642.1518,-271.8733 642.1518,-271.8733 643.9399,-273.6205 643.7242,-270.264 645.7281,-275.3677 645.7281,-275.3677"/>
</g>
<!-- Ubuntu -->
<g id="node21" class="node">
<title>Ubuntu</title>
<path fill="#f0f8ff" stroke="#006400" d="M651.5,-220.5C651.5,-220.5 681.5,-220.5 681.5,-220.5 687.5,-220.5 693.5,-226.5 693.5,-232.5 693.5,-232.5 693.5,-244.5 693.5,-244.5 693.5,-250.5 687.5,-256.5 681.5,-256.5 681.5,-256.5 651.5,-256.5 651.5,-256.5 645.5,-256.5 639.5,-250.5 639.5,-244.5 639.5,-244.5 639.5,-232.5 639.5,-232.5 639.5,-226.5 645.5,-220.5 651.5,-220.5"/>
<text text-anchor="middle" x="666.5" y="-236" font-family="SimSun" font-size="10.00" fill="#000000">Ubuntu</text>
</g>
<!-- linuxDist&#45;&gt;Ubuntu -->
<g id="edge21" class="edge">
<title>linuxDist&#45;&gt;Ubuntu</title>
<path fill="none" stroke="#c0c0c0" d="M586.5303,-222.3264C602.6819,-225.593 619.9093,-229.0772 634.2222,-231.9719"/>
<polygon fill="#c0c0c0" stroke="#c0c0c0" points="639.3561,-233.0102 634.0092,-234.2243 636.9057,-232.5146 634.4553,-232.019 634.4553,-232.019 634.4553,-232.019 636.9057,-232.5146 634.9014,-229.8136 639.3561,-233.0102 639.3561,-233.0102"/>
</g>
<!-- Kali -->
<g id="node22" class="node">
<title>Kali</title>
<path fill="#f0f8ff" stroke="#006400" d="M651.5,-165.5C651.5,-165.5 681.5,-165.5 681.5,-165.5 687.5,-165.5 693.5,-171.5 693.5,-177.5 693.5,-177.5 693.5,-189.5 693.5,-189.5 693.5,-195.5 687.5,-201.5 681.5,-201.5 681.5,-201.5 651.5,-201.5 651.5,-201.5 645.5,-201.5 639.5,-195.5 639.5,-189.5 639.5,-189.5 639.5,-177.5 639.5,-177.5 639.5,-171.5 645.5,-165.5 651.5,-165.5"/>
<text text-anchor="middle" x="666.5" y="-181" font-family="SimSun" font-size="10.00" fill="#000000">Kali</text>
</g>
<!-- linuxDist&#45;&gt;Kali -->
<g id="edge22" class="edge">
<title>linuxDist&#45;&gt;Kali</title>
<path fill="none" stroke="#c0c0c0" d="M586.5303,-200.2727C602.6819,-196.8851 619.9093,-193.2718 634.2222,-190.2699"/>
<polygon fill="#c0c0c0" stroke="#c0c0c0" points="639.3561,-189.1931 634.9244,-192.4216 636.9093,-189.7063 634.4626,-190.2195 634.4626,-190.2195 634.4626,-190.2195 636.9093,-189.7063 634.0007,-188.0175 639.3561,-189.1931 639.3561,-189.1931"/>
</g>
<!-- Redhat -->
<g id="node23" class="node">
<title>Redhat</title>
<path fill="#f0f8ff" stroke="#4682b4" d="M651.5,-110.5C651.5,-110.5 681.5,-110.5 681.5,-110.5 687.5,-110.5 693.5,-116.5 693.5,-122.5 693.5,-122.5 693.5,-134.5 693.5,-134.5 693.5,-140.5 687.5,-146.5 681.5,-146.5 681.5,-146.5 651.5,-146.5 651.5,-146.5 645.5,-146.5 639.5,-140.5 639.5,-134.5 639.5,-134.5 639.5,-122.5 639.5,-122.5 639.5,-116.5 645.5,-110.5 651.5,-110.5"/>
<text text-anchor="middle" x="666.5" y="-126" font-family="SimSun" font-size="10.00" fill="#000000">Redhat</text>
</g>
<!-- linuxDist&#45;&gt;Redhat -->
<g id="edge23" class="edge">
<title>linuxDist&#45;&gt;Redhat</title>
<path fill="none" stroke="#c0c0c0" d="M586.5153,-200.6225C597.6237,-196.7445 608.7496,-191.5202 618,-184.5 630.2744,-175.1848 627.0168,-167.2374 637,-155.5 638.4169,-153.8341 639.9318,-152.1694 641.4991,-150.5307"/>
<polygon fill="#c0c0c0" stroke="#c0c0c0" points="645.2297,-146.7664 643.3082,-151.9017 643.4699,-148.5421 641.7101,-150.3178 641.7101,-150.3178 641.7101,-150.3178 643.4699,-148.5421 640.1119,-148.734 645.2297,-146.7664 645.2297,-146.7664"/>
</g>
<!-- Fedora -->
<g id="node24" class="node">
<title>Fedora</title>
<path fill="#f0f8ff" stroke="#4682b4" d="M651.5,-55.5C651.5,-55.5 681.5,-55.5 681.5,-55.5 687.5,-55.5 693.5,-61.5 693.5,-67.5 693.5,-67.5 693.5,-79.5 693.5,-79.5 693.5,-85.5 687.5,-91.5 681.5,-91.5 681.5,-91.5 651.5,-91.5 651.5,-91.5 645.5,-91.5 639.5,-85.5 639.5,-79.5 639.5,-79.5 639.5,-67.5 639.5,-67.5 639.5,-61.5 645.5,-55.5 651.5,-55.5"/>
<text text-anchor="middle" x="666.5" y="-71" font-family="SimSun" font-size="10.00" fill="#000000">Fedora</text>
</g>
<!-- linuxDist&#45;&gt;Fedora -->
<g id="edge24" class="edge">
<title>linuxDist&#45;&gt;Fedora</title>
<path fill="none" stroke="#c0c0c0" d="M586.8469,-203.5475C598.4648,-199.5297 609.7265,-193.5095 618,-184.5 630.9447,-170.4037 627.3906,-117.0509 637,-100.5 637.963,-98.8413 639.0617,-97.2263 640.2556,-95.6646"/>
<polygon fill="#c0c0c0" stroke="#c0c0c0" points="643.6103,-91.6627 642.1225,-96.9399 642.0043,-93.5786 640.3982,-95.4945 640.3982,-95.4945 640.3982,-95.4945 642.0043,-93.5786 638.6739,-94.049 643.6103,-91.6627 643.6103,-91.6627"/>
</g>
<!-- CentOS -->
<g id="node25" class="node">
<title>CentOS</title>
<path fill="#f0f8ff" stroke="#4682b4" d="M651.5,-.5C651.5,-.5 681.5,-.5 681.5,-.5 687.5,-.5 693.5,-6.5 693.5,-12.5 693.5,-12.5 693.5,-24.5 693.5,-24.5 693.5,-30.5 687.5,-36.5 681.5,-36.5 681.5,-36.5 651.5,-36.5 651.5,-36.5 645.5,-36.5 639.5,-30.5 639.5,-24.5 639.5,-24.5 639.5,-12.5 639.5,-12.5 639.5,-6.5 645.5,-.5 651.5,-.5"/>
<text text-anchor="middle" x="666.5" y="-16" font-family="SimSun" font-size="10.00" fill="#000000">CentOS</text>
</g>
<!-- linuxDist&#45;&gt;CentOS -->
<g id="edge25" class="edge">
<title>linuxDist&#45;&gt;CentOS</title>
<path fill="none" stroke="#c0c0c0" d="M586.5356,-204.3514C598.4502,-200.3227 609.9249,-194.0961 618,-184.5 628.0366,-172.573 629.764,-59.3068 637,-45.5 637.8903,-43.8012 638.932,-42.1547 640.082,-40.5688"/>
<polygon fill="#c0c0c0" stroke="#c0c0c0" points="643.3496,-36.5188 641.9611,-41.823 641.7798,-38.4645 640.21,-40.4102 640.21,-40.4102 640.21,-40.4102 641.7798,-38.4645 638.4589,-38.9973 643.3496,-36.5188 643.3496,-36.5188"/>
</g>
<!-- GNU&#45;&gt;linuxDist -->
<g id="edge27" class="edge">
<title>GNU&#45;&gt;linuxDist</title>
<path fill="none" stroke="#c0c0c0" stroke-dasharray="1,5" d="M422.0578,-171.9854C430.2468,-176.3451 439.3618,-180.8804 448,-184.5 456.4344,-188.0342 465.5014,-191.3749 474.4601,-194.4231"/>
<polygon fill="#c0c0c0" stroke="#c0c0c0" points="479.4213,-196.0858 473.9655,-196.6303 477.0509,-195.2913 474.6805,-194.4969 474.6805,-194.4969 474.6805,-194.4969 477.0509,-195.2913 475.3955,-192.3635 479.4213,-196.0858 479.4213,-196.0858"/>
</g>
<!-- GNU&#39;s Not Unix 的缩写 -->
<g id="node27" class="node">
<title>GNU&#39;s Not Unix 的缩写</title>
<path fill="#f0f8ff" stroke="#add8e6" d="M482,-138.5C482,-138.5 584,-138.5 584,-138.5 590,-138.5 596,-144.5 596,-150.5 596,-150.5 596,-162.5 596,-162.5 596,-168.5 590,-174.5 584,-174.5 584,-174.5 482,-174.5 482,-174.5 476,-174.5 470,-168.5 470,-162.5 470,-162.5 470,-150.5 470,-150.5 470,-144.5 476,-138.5 482,-138.5"/>
<text text-anchor="middle" x="533" y="-154" font-family="SimSun" font-size="10.00" fill="#000000">GNU&#39;s Not Unix 的缩写</text>
</g>
<!-- GNU&#45;&gt;GNU&#39;s Not Unix 的缩写 -->
<g id="edge28" class="edge">
<title>GNU&#45;&gt;GNU&#39;s Not Unix 的缩写</title>
<path fill="none" stroke="#c0c0c0" d="M422.2644,-156.5C434.5439,-156.5 449.6482,-156.5 464.7076,-156.5"/>
<polygon fill="#c0c0c0" stroke="#c0c0c0" points="469.8088,-156.5 464.8089,-158.7501 467.3088,-156.5 464.8088,-156.5001 464.8088,-156.5001 464.8088,-156.5001 467.3088,-156.5 464.8088,-154.2501 469.8088,-156.5 469.8088,-156.5"/>
</g>
<!-- 由 Richard Stallman\n在麻省理工学院\n人工智能实验室发起,\n目标是成立一个\n完全免费的操作系统 -->
<g id="node28" class="node">
<title>由 Richard Stallman\n在麻省理工学院\n人工智能实验室发起,\n目标是成立一个\n完全免费的操作系统</title>
<path fill="#f0f8ff" stroke="#add8e6" d="M478,-56C478,-56 588,-56 588,-56 594,-56 600,-62 600,-68 600,-68 600,-107 600,-107 600,-113 594,-119 588,-119 588,-119 478,-119 478,-119 472,-119 466,-113 466,-107 466,-107 466,-68 466,-68 466,-62 472,-56 478,-56"/>
<text text-anchor="middle" x="533" y="-107" font-family="SimSun" font-size="10.00" fill="#000000">由 Richard Stallman</text>
<text text-anchor="middle" x="533" y="-96" font-family="SimSun" font-size="10.00" fill="#000000">在麻省理工学院</text>
<text text-anchor="middle" x="533" y="-85" font-family="SimSun" font-size="10.00" fill="#000000">人工智能实验室发起,</text>
<text text-anchor="middle" x="533" y="-74" font-family="SimSun" font-size="10.00" fill="#000000">目标是成立一个</text>
<text text-anchor="middle" x="533" y="-63" font-family="SimSun" font-size="10.00" fill="#000000">完全免费的操作系统</text>
</g>
<!-- GNU&#45;&gt;由 Richard Stallman\n在麻省理工学院\n人工智能实验室发起,\n目标是成立一个\n完全免费的操作系统 -->
<g id="edge29" class="edge">
<title>GNU&#45;&gt;由 Richard Stallman\n在麻省理工学院\n人工智能实验室发起,\n目标是成立一个\n完全免费的操作系统</title>
<path fill="none" stroke="#c0c0c0" d="M422.1358,-141.9199C430.4068,-137.5419 439.5472,-132.7696 448,-128.5 452.7026,-126.1246 457.5649,-123.6991 462.4727,-121.2735"/>
<polygon fill="#c0c0c0" stroke="#c0c0c0" points="466.9893,-119.0474 463.4992,-123.2761 464.7469,-120.1527 462.5044,-121.2579 462.5044,-121.2579 462.5044,-121.2579 464.7469,-120.1527 461.5097,-119.2398 466.9893,-119.0474 466.9893,-119.0474"/>
</g>
<!-- 自由软件组织\n口号是：开源，自由 -->
<g id="node29" class="node">
<title>自由软件组织\n口号是：开源，自由</title>
<path fill="#f0f8ff" stroke="#add8e6" d="M479.5,-.5C479.5,-.5 586.5,-.5 586.5,-.5 592.5,-.5 598.5,-6.5 598.5,-12.5 598.5,-12.5 598.5,-24.5 598.5,-24.5 598.5,-30.5 592.5,-36.5 586.5,-36.5 586.5,-36.5 479.5,-36.5 479.5,-36.5 473.5,-36.5 467.5,-30.5 467.5,-24.5 467.5,-24.5 467.5,-12.5 467.5,-12.5 467.5,-6.5 473.5,-.5 479.5,-.5"/>
<text text-anchor="middle" x="533" y="-21.5" font-family="SimSun" font-size="10.00" fill="#000000">自由软件组织</text>
<text text-anchor="middle" x="533" y="-10.5" font-family="SimSun" font-size="10.00" fill="#000000">口号是：开源，自由</text>
</g>
<!-- GNU&#45;&gt;自由软件组织\n口号是：开源，自由 -->
<g id="edge30" class="edge">
<title>GNU&#45;&gt;自由软件组织\n口号是：开源，自由</title>
<path fill="none" stroke="#c0c0c0" d="M399.075,-138.1947C405.4186,-113.868 419.951,-71.1013 448,-46.5 452.4715,-42.5781 457.5064,-39.203 462.8362,-36.2989"/>
<polygon fill="#c0c0c0" stroke="#c0c0c0" points="467.3767,-33.9686 463.9558,-38.2535 465.1526,-35.1102 462.9284,-36.2517 462.9284,-36.2517 462.9284,-36.2517 465.1526,-35.1102 461.901,-34.2499 467.3767,-33.9686 467.3767,-33.9686"/>
</g>
</g>
</svg>
