<?xml version="1.0" encoding="UTF-8" standalone="no"?>
<!DOCTYPE svg PUBLIC "-//W3C//DTD SVG 1.1//EN"
 "http://www.w3.org/Graphics/SVG/1.1/DTD/svg11.dtd">
<!-- Generated by graphviz version 2.38.0 (20140413.2041)
 -->
<!-- Title: os_history Pages: 1 -->
<svg width="645pt" height="624pt"
 viewBox="0.00 0.00 645.00 624.00" xmlns="http://www.w3.org/2000/svg" xmlns:xlink="http://www.w3.org/1999/xlink">
<g id="graph0" class="graph" transform="scale(1 1) rotate(0) translate(4 620)">
<title>os_history</title>
<polygon fill="white" stroke="none" points="-4,4 -4,-620 641,-620 641,4 -4,4"/>
<!-- OS -->
<g id="node1" class="node"><title>OS</title>
<path fill="aliceblue" stroke="lightblue" d="M12,-292.5C12,-292.5 42,-292.5 42,-292.5 48,-292.5 54,-298.5 54,-304.5 54,-304.5 54,-316.5 54,-316.5 54,-322.5 48,-328.5 42,-328.5 42,-328.5 12,-328.5 12,-328.5 6,-328.5 0,-322.5 0,-316.5 0,-316.5 0,-304.5 0,-304.5 0,-298.5 6,-292.5 12,-292.5"/>
<text text-anchor="middle" x="27" y="-308" font-family="SimSun" font-size="10.00">OS</text>
</g>
<!-- Windows -->
<g id="node2" class="node"><title>Windows</title>
<path fill="aliceblue" stroke="lightblue" d="M85,-312.5C85,-312.5 125,-312.5 125,-312.5 131,-312.5 137,-318.5 137,-324.5 137,-324.5 137,-336.5 137,-336.5 137,-342.5 131,-348.5 125,-348.5 125,-348.5 85,-348.5 85,-348.5 79,-348.5 73,-342.5 73,-336.5 73,-336.5 73,-324.5 73,-324.5 73,-318.5 79,-312.5 85,-312.5"/>
<text text-anchor="middle" x="105" y="-333.5" font-family="SimSun" font-size="10.00">Windows</text>
<text text-anchor="middle" x="105" y="-322.5" font-family="SimSun" font-size="10.00">Microsoft</text>
</g>
<!-- OS&#45;&gt;Windows -->
<g id="edge1" class="edge"><title>OS&#45;&gt;Windows</title>
<path fill="none" stroke="grey" d="M54.1549,-317.383C58.5694,-318.545 63.2209,-319.769 67.8362,-320.983"/>
<polygon fill="grey" stroke="grey" points="72.8172,-322.294 67.4092,-323.197 70.3995,-321.658 67.9818,-321.021 67.9818,-321.021 67.9818,-321.021 70.3995,-321.658 68.5544,-318.846 72.8172,-322.294 72.8172,-322.294"/>
</g>
<!-- UNIX -->
<g id="node3" class="node"><title>UNIX</title>
<path fill="aliceblue" stroke="lightblue" d="M90,-257.5C90,-257.5 120,-257.5 120,-257.5 126,-257.5 132,-263.5 132,-269.5 132,-269.5 132,-281.5 132,-281.5 132,-287.5 126,-293.5 120,-293.5 120,-293.5 90,-293.5 90,-293.5 84,-293.5 78,-287.5 78,-281.5 78,-281.5 78,-269.5 78,-269.5 78,-263.5 84,-257.5 90,-257.5"/>
<text text-anchor="middle" x="105" y="-273" font-family="SimSun" font-size="10.00">UNIX</text>
</g>
<!-- OS&#45;&gt;UNIX -->
<g id="edge2" class="edge"><title>OS&#45;&gt;UNIX</title>
<path fill="none" stroke="grey" d="M54.1549,-298.455C60.2453,-295.65 66.7868,-292.638 73.062,-289.748"/>
<polygon fill="grey" stroke="grey" points="77.7969,-287.567 74.1965,-291.702 75.5261,-288.613 73.2553,-289.659 73.2553,-289.659 73.2553,-289.659 75.5261,-288.613 72.3141,-287.615 77.7969,-287.567 77.7969,-287.567"/>
</g>
<!-- TM -->
<g id="node4" class="node"><title>TM</title>
<path fill="aliceblue" stroke="lightblue" d="M358.5,-469.5C358.5,-469.5 388.5,-469.5 388.5,-469.5 394.5,-469.5 400.5,-475.5 400.5,-481.5 400.5,-481.5 400.5,-493.5 400.5,-493.5 400.5,-499.5 394.5,-505.5 388.5,-505.5 388.5,-505.5 358.5,-505.5 358.5,-505.5 352.5,-505.5 346.5,-499.5 346.5,-493.5 346.5,-493.5 346.5,-481.5 346.5,-481.5 346.5,-475.5 352.5,-469.5 358.5,-469.5"/>
<text text-anchor="middle" x="373.5" y="-485" font-family="SimSun" font-size="10.00">TM</text>
</g>
<!-- UNIX&#45;&gt;TM -->
<g id="edge3" class="edge"><title>UNIX&#45;&gt;TM</title>
<path fill="none" stroke="grey" d="M129.969,-293.594C132.614,-296.353 135.051,-299.342 137,-302.5 145.436,-316.168 136.684,-324.416 146,-337.5 196.517,-408.445 292.005,-455.087 341.303,-475.574"/>
<polygon fill="grey" stroke="grey" points="346.215,-477.592 340.735,-477.773 343.902,-476.642 341.59,-475.692 341.59,-475.692 341.59,-475.692 343.902,-476.642 342.445,-473.611 346.215,-477.592 346.215,-477.592"/>
<text text-anchor="middle" x="273" y="-459.3" font-family="SimSun" font-size="9.00">拓展/商用</text>
</g>
<!-- BSD -->
<g id="node5" class="node"><title>BSD</title>
<path fill="aliceblue" stroke="lightblue" d="M258,-305.5C258,-305.5 288,-305.5 288,-305.5 294,-305.5 300,-311.5 300,-317.5 300,-317.5 300,-329.5 300,-329.5 300,-335.5 294,-341.5 288,-341.5 288,-341.5 258,-341.5 258,-341.5 252,-341.5 246,-335.5 246,-329.5 246,-329.5 246,-317.5 246,-317.5 246,-311.5 252,-305.5 258,-305.5"/>
<text text-anchor="middle" x="273" y="-321" font-family="SimSun" font-size="10.00">BSD</text>
</g>
<!-- UNIX&#45;&gt;BSD -->
<g id="edge4" class="edge"><title>UNIX&#45;&gt;BSD</title>
<path fill="none" stroke="grey" d="M132.303,-283.106C161.808,-291.637 209.622,-305.463 240.94,-314.519"/>
<polygon fill="grey" stroke="grey" points="245.82,-315.93 240.392,-316.702 243.418,-315.235 241.017,-314.541 241.017,-314.541 241.017,-314.541 243.418,-315.235 241.642,-312.379 245.82,-315.93 245.82,-315.93"/>
<text text-anchor="middle" x="191.5" y="-326.3" font-family="SimSun" font-size="9.00">开源版本</text>
<text text-anchor="middle" x="191.5" y="-316.3" font-family="SimSun" font-size="9.00">(加州大学伯克利分校)</text>
</g>
<!-- Linux -->
<g id="node6" class="node"><title>Linux</title>
<path fill="aliceblue" stroke="lightblue" d="M258,-193.5C258,-193.5 288,-193.5 288,-193.5 294,-193.5 300,-199.5 300,-205.5 300,-205.5 300,-217.5 300,-217.5 300,-223.5 294,-229.5 288,-229.5 288,-229.5 258,-229.5 258,-229.5 252,-229.5 246,-223.5 246,-217.5 246,-217.5 246,-205.5 246,-205.5 246,-199.5 252,-193.5 258,-193.5"/>
<text text-anchor="middle" x="273" y="-209" font-family="SimSun" font-size="10.00">Linux</text>
</g>
<!-- UNIX&#45;&gt;Linux -->
<g id="edge5" class="edge"><title>UNIX&#45;&gt;Linux</title>
<path fill="none" stroke="grey" d="M132.303,-265.359C161.808,-253.984 209.622,-235.549 240.94,-223.475"/>
<polygon fill="grey" stroke="grey" points="245.82,-221.594 241.964,-225.492 243.487,-222.493 241.155,-223.392 241.155,-223.392 241.155,-223.392 243.487,-222.493 240.345,-221.293 245.82,-221.594 245.82,-221.594"/>
<text text-anchor="middle" x="191.5" y="-273.3" font-family="SimSun" font-size="9.00">山寨版本</text>
<text text-anchor="middle" x="191.5" y="-263.3" font-family="SimSun" font-size="9.00">(by Linus Torvalds)</text>
</g>
<!-- AIX(IBM) -->
<g id="node10" class="node"><title>AIX(IBM)</title>
<path fill="aliceblue" stroke="lightblue" d="M469.5,-579.5C469.5,-579.5 504.5,-579.5 504.5,-579.5 510.5,-579.5 516.5,-585.5 516.5,-591.5 516.5,-591.5 516.5,-603.5 516.5,-603.5 516.5,-609.5 510.5,-615.5 504.5,-615.5 504.5,-615.5 469.5,-615.5 469.5,-615.5 463.5,-615.5 457.5,-609.5 457.5,-603.5 457.5,-603.5 457.5,-591.5 457.5,-591.5 457.5,-585.5 463.5,-579.5 469.5,-579.5"/>
<text text-anchor="middle" x="487" y="-595" font-family="SimSun" font-size="10.00">AIX(IBM)</text>
</g>
<!-- TM&#45;&gt;AIX(IBM) -->
<g id="edge10" class="edge"><title>TM&#45;&gt;AIX(IBM)</title>
<path fill="none" stroke="grey" d="M380.366,-505.682C387.196,-524.242 400.142,-552.77 420,-570.5 429.212,-578.724 441.265,-584.639 452.548,-588.795"/>
<polygon fill="grey" stroke="grey" points="457.325,-590.47 451.862,-590.939 454.966,-589.643 452.607,-588.816 452.607,-588.816 452.607,-588.816 454.966,-589.643 453.351,-586.692 457.325,-590.47 457.325,-590.47"/>
</g>
<!-- Solaris(Oracle) -->
<g id="node11" class="node"><title>Solaris(Oracle)</title>
<path fill="aliceblue" stroke="lightblue" d="M451.5,-524.5C451.5,-524.5 522.5,-524.5 522.5,-524.5 528.5,-524.5 534.5,-530.5 534.5,-536.5 534.5,-536.5 534.5,-548.5 534.5,-548.5 534.5,-554.5 528.5,-560.5 522.5,-560.5 522.5,-560.5 451.5,-560.5 451.5,-560.5 445.5,-560.5 439.5,-554.5 439.5,-548.5 439.5,-548.5 439.5,-536.5 439.5,-536.5 439.5,-530.5 445.5,-524.5 451.5,-524.5"/>
<text text-anchor="middle" x="487" y="-540" font-family="SimSun" font-size="10.00">Solaris(Oracle)</text>
</g>
<!-- TM&#45;&gt;Solaris(Oracle) -->
<g id="edge11" class="edge"><title>TM&#45;&gt;Solaris(Oracle)</title>
<path fill="none" stroke="grey" d="M400.63,-503.817C406.886,-507.496 413.607,-511.266 420,-514.5 425.293,-517.178 430.902,-519.829 436.527,-522.371"/>
<polygon fill="grey" stroke="grey" points="441.249,-524.478 435.766,-524.495 438.966,-523.459 436.683,-522.44 436.683,-522.44 436.683,-522.44 438.966,-523.459 437.6,-520.386 441.249,-524.478 441.249,-524.478"/>
</g>
<!-- MacOS(Apple) -->
<g id="node12" class="node"><title>MacOS(Apple)</title>
<path fill="aliceblue" stroke="lightblue" d="M459,-469.5C459,-469.5 515,-469.5 515,-469.5 521,-469.5 527,-475.5 527,-481.5 527,-481.5 527,-493.5 527,-493.5 527,-499.5 521,-505.5 515,-505.5 515,-505.5 459,-505.5 459,-505.5 453,-505.5 447,-499.5 447,-493.5 447,-493.5 447,-481.5 447,-481.5 447,-475.5 453,-469.5 459,-469.5"/>
<text text-anchor="middle" x="487" y="-485" font-family="SimSun" font-size="10.00">MacOS(Apple)</text>
</g>
<!-- TM&#45;&gt;MacOS(Apple) -->
<g id="edge12" class="edge"><title>TM&#45;&gt;MacOS(Apple)</title>
<path fill="none" stroke="grey" d="M400.642,-487.5C412.91,-487.5 427.872,-487.5 441.824,-487.5"/>
<polygon fill="grey" stroke="grey" points="446.911,-487.5 441.911,-489.75 444.411,-487.5 441.911,-487.5 441.911,-487.5 441.911,-487.5 444.411,-487.5 441.911,-485.25 446.911,-487.5 446.911,-487.5"/>
</g>
<!-- HP&#45;UX(HP) -->
<g id="node13" class="node"><title>HP&#45;UX(HP)</title>
<path fill="aliceblue" stroke="lightblue" d="M467,-414.5C467,-414.5 507,-414.5 507,-414.5 513,-414.5 519,-420.5 519,-426.5 519,-426.5 519,-438.5 519,-438.5 519,-444.5 513,-450.5 507,-450.5 507,-450.5 467,-450.5 467,-450.5 461,-450.5 455,-444.5 455,-438.5 455,-438.5 455,-426.5 455,-426.5 455,-420.5 461,-414.5 467,-414.5"/>
<text text-anchor="middle" x="487" y="-430" font-family="SimSun" font-size="10.00">HP&#45;UX(HP)</text>
</g>
<!-- TM&#45;&gt;HP&#45;UX(HP) -->
<g id="edge13" class="edge"><title>TM&#45;&gt;HP&#45;UX(HP)</title>
<path fill="none" stroke="grey" d="M400.547,-470.466C406.806,-466.656 413.55,-462.776 420,-459.5 429.58,-454.634 440.251,-449.963 450.172,-445.916"/>
<polygon fill="grey" stroke="grey" points="454.974,-443.98 451.177,-447.936 452.655,-444.915 450.336,-445.849 450.336,-445.849 450.336,-445.849 452.655,-444.915 449.495,-443.763 454.974,-443.98 454.974,-443.98"/>
</g>
<!-- BSD&#45;&gt;TM -->
<g id="edge6" class="edge"><title>BSD&#45;&gt;TM</title>
<path fill="none" stroke="grey" d="M284.918,-341.677C302.964,-371.724 338.98,-431.69 358.74,-464.59"/>
<polygon fill="grey" stroke="grey" points="361.534,-469.241 357.03,-466.113 360.246,-467.098 358.959,-464.955 358.959,-464.955 358.959,-464.955 360.246,-467.098 360.888,-463.796 361.534,-469.241 361.534,-469.241"/>
</g>
<!-- FreeBSD -->
<g id="node7" class="node"><title>FreeBSD</title>
<path fill="aliceblue" stroke="lightblue" d="M358.5,-360.5C358.5,-360.5 388.5,-360.5 388.5,-360.5 394.5,-360.5 400.5,-366.5 400.5,-372.5 400.5,-372.5 400.5,-384.5 400.5,-384.5 400.5,-390.5 394.5,-396.5 388.5,-396.5 388.5,-396.5 358.5,-396.5 358.5,-396.5 352.5,-396.5 346.5,-390.5 346.5,-384.5 346.5,-384.5 346.5,-372.5 346.5,-372.5 346.5,-366.5 352.5,-360.5 358.5,-360.5"/>
<text text-anchor="middle" x="373.5" y="-376" font-family="SimSun" font-size="10.00">FreeBSD</text>
</g>
<!-- BSD&#45;&gt;FreeBSD -->
<g id="edge7" class="edge"><title>BSD&#45;&gt;FreeBSD</title>
<path fill="none" stroke="grey" d="M300.138,-338.095C312.939,-345.243 328.435,-353.895 341.797,-361.356"/>
<polygon fill="grey" stroke="grey" points="346.24,-363.837 340.778,-363.364 344.057,-362.618 341.875,-361.4 341.875,-361.4 341.875,-361.4 344.057,-362.618 342.972,-359.435 346.24,-363.837 346.24,-363.837"/>
</g>
<!-- OpenBSD -->
<g id="node8" class="node"><title>OpenBSD</title>
<path fill="aliceblue" stroke="lightblue" d="M358.5,-305.5C358.5,-305.5 388.5,-305.5 388.5,-305.5 394.5,-305.5 400.5,-311.5 400.5,-317.5 400.5,-317.5 400.5,-329.5 400.5,-329.5 400.5,-335.5 394.5,-341.5 388.5,-341.5 388.5,-341.5 358.5,-341.5 358.5,-341.5 352.5,-341.5 346.5,-335.5 346.5,-329.5 346.5,-329.5 346.5,-317.5 346.5,-317.5 346.5,-311.5 352.5,-305.5 358.5,-305.5"/>
<text text-anchor="middle" x="373.5" y="-321" font-family="SimSun" font-size="10.00">OpenBSD</text>
</g>
<!-- BSD&#45;&gt;OpenBSD -->
<g id="edge8" class="edge"><title>BSD&#45;&gt;OpenBSD</title>
<path fill="none" stroke="grey" d="M300.138,-323.5C312.716,-323.5 327.897,-323.5 341.098,-323.5"/>
<polygon fill="grey" stroke="grey" points="346.24,-323.5 341.24,-325.75 343.74,-323.5 341.24,-323.5 341.24,-323.5 341.24,-323.5 343.74,-323.5 341.24,-321.25 346.24,-323.5 346.24,-323.5"/>
</g>
<!-- NetBSD -->
<g id="node9" class="node"><title>NetBSD</title>
<path fill="aliceblue" stroke="lightblue" d="M358.5,-250.5C358.5,-250.5 388.5,-250.5 388.5,-250.5 394.5,-250.5 400.5,-256.5 400.5,-262.5 400.5,-262.5 400.5,-274.5 400.5,-274.5 400.5,-280.5 394.5,-286.5 388.5,-286.5 388.5,-286.5 358.5,-286.5 358.5,-286.5 352.5,-286.5 346.5,-280.5 346.5,-274.5 346.5,-274.5 346.5,-262.5 346.5,-262.5 346.5,-256.5 352.5,-250.5 358.5,-250.5"/>
<text text-anchor="middle" x="373.5" y="-266" font-family="SimSun" font-size="10.00">NetBSD</text>
</g>
<!-- BSD&#45;&gt;NetBSD -->
<g id="edge9" class="edge"><title>BSD&#45;&gt;NetBSD</title>
<path fill="none" stroke="grey" d="M300.138,-308.905C312.939,-301.757 328.435,-293.105 341.797,-285.644"/>
<polygon fill="grey" stroke="grey" points="346.24,-283.163 342.972,-287.565 344.057,-284.382 341.875,-285.6 341.875,-285.6 341.875,-285.6 344.057,-284.382 340.778,-283.636 346.24,-283.163 346.24,-283.163"/>
</g>
<!-- linuxDist -->
<g id="node17" class="node"><title>linuxDist</title>
<path fill="aliceblue" stroke="lightblue" d="M450,-193.5C450,-193.5 524,-193.5 524,-193.5 530,-193.5 536,-199.5 536,-205.5 536,-205.5 536,-217.5 536,-217.5 536,-223.5 530,-229.5 524,-229.5 524,-229.5 450,-229.5 450,-229.5 444,-229.5 438,-223.5 438,-217.5 438,-217.5 438,-205.5 438,-205.5 438,-199.5 444,-193.5 450,-193.5"/>
<text text-anchor="middle" x="487" y="-209" font-family="SimSun" font-size="10.00">GNU/Linux 发行版</text>
</g>
<!-- Linux&#45;&gt;linuxDist -->
<g id="edge17" class="edge"><title>Linux&#45;&gt;linuxDist</title>
<path fill="none" stroke="grey" d="M300.421,-211.5C333.38,-211.5 390.526,-211.5 432.72,-211.5"/>
<polygon fill="grey" stroke="grey" points="437.789,-211.5 432.789,-213.75 435.289,-211.5 432.789,-211.5 432.789,-211.5 432.789,-211.5 435.289,-211.5 432.789,-209.25 437.789,-211.5 437.789,-211.5"/>
<text text-anchor="middle" x="373.5" y="-224.3" font-family="SimSun" font-size="9.00">预装大量软件</text>
<text text-anchor="middle" x="373.5" y="-214.3" font-family="SimSun" font-size="9.00">增强易用性</text>
</g>
<!-- GNU -->
<g id="node26" class="node"><title>GNU</title>
<path fill="aliceblue" stroke="lightblue" d="M358.5,-138.5C358.5,-138.5 388.5,-138.5 388.5,-138.5 394.5,-138.5 400.5,-144.5 400.5,-150.5 400.5,-150.5 400.5,-162.5 400.5,-162.5 400.5,-168.5 394.5,-174.5 388.5,-174.5 388.5,-174.5 358.5,-174.5 358.5,-174.5 352.5,-174.5 346.5,-168.5 346.5,-162.5 346.5,-162.5 346.5,-150.5 346.5,-150.5 346.5,-144.5 352.5,-138.5 358.5,-138.5"/>
<text text-anchor="middle" x="373.5" y="-154" font-family="SimSun" font-size="10.00">GNU</text>
</g>
<!-- Linux&#45;&gt;GNU -->
<g id="edge26" class="edge"><title>Linux&#45;&gt;GNU</title>
<path fill="none" stroke="grey" d="M299.333,-193.492C302.542,-191.4 305.817,-189.355 309,-187.5 319.387,-181.447 331.126,-175.486 341.66,-170.434"/>
<polygon fill="grey" stroke="grey" points="346.406,-168.179 342.856,-172.357 344.148,-169.252 341.89,-170.324 341.89,-170.324 341.89,-170.324 344.148,-169.252 340.925,-168.292 346.406,-168.179 346.406,-168.179"/>
<text text-anchor="middle" x="323" y="-190.3" font-family="SimSun" font-size="9.00">推动者</text>
</g>
<!-- FreeBSD_Desc -->
<g id="node14" class="node"><title>FreeBSD_Desc</title>
<text text-anchor="middle" x="487" y="-375" font-family="SimSun" font-size="10.00">稳定，高效，精于网络处理</text>
</g>
<!-- FreeBSD&#45;&gt;FreeBSD_Desc -->
<g id="edge14" class="edge"><title>FreeBSD&#45;&gt;FreeBSD_Desc</title>
<path fill="none" stroke="grey" d="M400.642,-378.266C405.083,-378.226 409.878,-378.183 414.849,-378.138"/>
<polygon fill="grey" stroke="grey" points="419.874,-378.093 414.894,-380.388 417.374,-378.116 414.874,-378.138 414.874,-378.138 414.874,-378.138 417.374,-378.116 414.854,-375.888 419.874,-378.093 419.874,-378.093"/>
</g>
<!-- OpenBSD_Desc -->
<g id="node15" class="node"><title>OpenBSD_Desc</title>
<text text-anchor="middle" x="487" y="-321" font-family="SimSun" font-size="10.00">号称最安全的操作系统</text>
</g>
<!-- OpenBSD&#45;&gt;OpenBSD_Desc -->
<g id="edge15" class="edge"><title>OpenBSD&#45;&gt;OpenBSD_Desc</title>
<path fill="none" stroke="grey" d="M400.642,-323.5C407.891,-323.5 416.081,-323.5 424.448,-323.5"/>
<polygon fill="grey" stroke="grey" points="429.673,-323.5 424.673,-325.75 427.173,-323.5 424.673,-323.5 424.673,-323.5 424.673,-323.5 427.173,-323.5 424.673,-321.25 429.673,-323.5 429.673,-323.5"/>
</g>
<!-- NetBSD_Desc -->
<g id="node16" class="node"><title>NetBSD_Desc</title>
<text text-anchor="middle" x="487" y="-266" font-family="SimSun" font-size="10.00">可移植性强，适合嵌入式</text>
</g>
<!-- NetBSD&#45;&gt;NetBSD_Desc -->
<g id="edge16" class="edge"><title>NetBSD&#45;&gt;NetBSD_Desc</title>
<path fill="none" stroke="grey" d="M400.642,-268.5C406.489,-268.5 412.949,-268.5 419.619,-268.5"/>
<polygon fill="grey" stroke="grey" points="424.754,-268.5 419.755,-270.75 422.254,-268.5 419.754,-268.5 419.754,-268.5 419.754,-268.5 422.254,-268.5 419.754,-266.25 424.754,-268.5 424.754,-268.5"/>
</g>
<!-- Android -->
<g id="node18" class="node"><title>Android</title>
<path fill="aliceblue" stroke="lightblue" d="M590,-386.5C590,-386.5 620,-386.5 620,-386.5 626,-386.5 632,-392.5 632,-398.5 632,-398.5 632,-410.5 632,-410.5 632,-416.5 626,-422.5 620,-422.5 620,-422.5 590,-422.5 590,-422.5 584,-422.5 578,-416.5 578,-410.5 578,-410.5 578,-398.5 578,-398.5 578,-392.5 584,-386.5 590,-386.5"/>
<text text-anchor="middle" x="605" y="-402" font-family="SimSun" font-size="10.00">Android</text>
</g>
<!-- linuxDist&#45;&gt;Android -->
<g id="edge18" class="edge"><title>linuxDist&#45;&gt;Android</title>
<path fill="none" stroke="grey" d="M536.211,-226.306C543.047,-230.268 549.327,-235.25 554,-241.5 563.07,-253.632 565.898,-363.12 573,-376.5 574.033,-378.446 575.257,-380.324 576.613,-382.123"/>
<polygon fill="grey" stroke="grey" points="579.986,-386.173 575.057,-383.771 578.386,-384.252 576.786,-382.331 576.786,-382.331 576.786,-382.331 578.386,-384.252 578.515,-380.891 579.986,-386.173 579.986,-386.173"/>
</g>
<!-- Archlinux -->
<g id="node19" class="node"><title>Archlinux</title>
<path fill="aliceblue" stroke="lightblue" d="M585,-331.5C585,-331.5 625,-331.5 625,-331.5 631,-331.5 637,-337.5 637,-343.5 637,-343.5 637,-355.5 637,-355.5 637,-361.5 631,-367.5 625,-367.5 625,-367.5 585,-367.5 585,-367.5 579,-367.5 573,-361.5 573,-355.5 573,-355.5 573,-343.5 573,-343.5 573,-337.5 579,-331.5 585,-331.5"/>
<text text-anchor="middle" x="605" y="-347" font-family="SimSun" font-size="10.00">Archlinux</text>
</g>
<!-- linuxDist&#45;&gt;Archlinux -->
<g id="edge19" class="edge"><title>linuxDist&#45;&gt;Archlinux</title>
<path fill="none" stroke="grey" d="M536.051,-226.883C542.819,-230.766 549.121,-235.572 554,-241.5 565.612,-255.608 563.689,-305.778 573,-321.5 574.229,-323.575 575.661,-325.583 577.224,-327.507"/>
<polygon fill="grey" stroke="grey" points="580.591,-331.332 575.598,-329.065 578.939,-329.455 577.287,-327.579 577.287,-327.579 577.287,-327.579 578.939,-329.455 578.976,-326.092 580.591,-331.332 580.591,-331.332"/>
</g>
<!-- Debian -->
<g id="node20" class="node"><title>Debian</title>
<path fill="aliceblue" stroke="darkgreen" d="M590,-276.5C590,-276.5 620,-276.5 620,-276.5 626,-276.5 632,-282.5 632,-288.5 632,-288.5 632,-300.5 632,-300.5 632,-306.5 626,-312.5 620,-312.5 620,-312.5 590,-312.5 590,-312.5 584,-312.5 578,-306.5 578,-300.5 578,-300.5 578,-288.5 578,-288.5 578,-282.5 584,-276.5 590,-276.5"/>
<text text-anchor="middle" x="605" y="-292" font-family="SimSun" font-size="10.00">Debian</text>
</g>
<!-- linuxDist&#45;&gt;Debian -->
<g id="edge20" class="edge"><title>linuxDist&#45;&gt;Debian</title>
<path fill="none" stroke="grey" d="M535.478,-229.586C542.012,-233.053 548.393,-237.024 554,-241.5 564.906,-250.208 563.558,-256.223 573,-266.5 574.901,-268.57 576.937,-270.654 579.023,-272.702"/>
<polygon fill="grey" stroke="grey" points="582.815,-276.336 577.648,-274.5 581.01,-274.606 579.205,-272.876 579.205,-272.876 579.205,-272.876 581.01,-274.606 580.763,-271.252 582.815,-276.336 582.815,-276.336"/>
</g>
<!-- Ubuntu -->
<g id="node21" class="node"><title>Ubuntu</title>
<path fill="aliceblue" stroke="darkgreen" d="M590,-221.5C590,-221.5 620,-221.5 620,-221.5 626,-221.5 632,-227.5 632,-233.5 632,-233.5 632,-245.5 632,-245.5 632,-251.5 626,-257.5 620,-257.5 620,-257.5 590,-257.5 590,-257.5 584,-257.5 578,-251.5 578,-245.5 578,-245.5 578,-233.5 578,-233.5 578,-227.5 584,-221.5 590,-221.5"/>
<text text-anchor="middle" x="605" y="-237" font-family="SimSun" font-size="10.00">Ubuntu</text>
</g>
<!-- linuxDist&#45;&gt;Ubuntu -->
<g id="edge21" class="edge"><title>linuxDist&#45;&gt;Ubuntu</title>
<path fill="none" stroke="grey" d="M536.187,-223.131C548.602,-226.128 561.636,-229.274 572.921,-231.998"/>
<polygon fill="grey" stroke="grey" points="577.975,-233.218 572.587,-234.232 575.545,-232.632 573.115,-232.045 573.115,-232.045 573.115,-232.045 575.545,-232.632 573.643,-229.858 577.975,-233.218 577.975,-233.218"/>
</g>
<!-- Kali -->
<g id="node22" class="node"><title>Kali</title>
<path fill="aliceblue" stroke="darkgreen" d="M590,-166.5C590,-166.5 620,-166.5 620,-166.5 626,-166.5 632,-172.5 632,-178.5 632,-178.5 632,-190.5 632,-190.5 632,-196.5 626,-202.5 620,-202.5 620,-202.5 590,-202.5 590,-202.5 584,-202.5 578,-196.5 578,-190.5 578,-190.5 578,-178.5 578,-178.5 578,-172.5 584,-166.5 590,-166.5"/>
<text text-anchor="middle" x="605" y="-182" font-family="SimSun" font-size="10.00">Kali</text>
</g>
<!-- linuxDist&#45;&gt;Kali -->
<g id="edge22" class="edge"><title>linuxDist&#45;&gt;Kali</title>
<path fill="none" stroke="grey" d="M536.187,-200.284C548.602,-197.394 561.636,-194.361 572.921,-191.734"/>
<polygon fill="grey" stroke="grey" points="577.975,-190.557 573.616,-193.882 575.54,-191.124 573.105,-191.691 573.105,-191.691 573.105,-191.691 575.54,-191.124 572.595,-189.5 577.975,-190.557 577.975,-190.557"/>
</g>
<!-- Redhat -->
<g id="node23" class="node"><title>Redhat</title>
<path fill="aliceblue" stroke="steelblue" d="M590,-111.5C590,-111.5 620,-111.5 620,-111.5 626,-111.5 632,-117.5 632,-123.5 632,-123.5 632,-135.5 632,-135.5 632,-141.5 626,-147.5 620,-147.5 620,-147.5 590,-147.5 590,-147.5 584,-147.5 578,-141.5 578,-135.5 578,-135.5 578,-123.5 578,-123.5 578,-117.5 584,-111.5 590,-111.5"/>
<text text-anchor="middle" x="605" y="-127" font-family="SimSun" font-size="10.00">Redhat</text>
</g>
<!-- linuxDist&#45;&gt;Redhat -->
<g id="edge23" class="edge"><title>linuxDist&#45;&gt;Redhat</title>
<path fill="none" stroke="grey" d="M536.32,-194.777C542.591,-191.547 548.674,-187.801 554,-183.5 565.415,-174.28 563.174,-167.398 573,-156.5 574.589,-154.738 576.288,-152.977 578.042,-151.249"/>
<polygon fill="grey" stroke="grey" points="581.702,-147.754 579.64,-152.835 579.894,-149.481 578.086,-151.207 578.086,-151.207 578.086,-151.207 579.894,-149.481 576.532,-149.58 581.702,-147.754 581.702,-147.754"/>
</g>
<!-- Fedora -->
<g id="node24" class="node"><title>Fedora</title>
<path fill="aliceblue" stroke="steelblue" d="M590,-56.5C590,-56.5 620,-56.5 620,-56.5 626,-56.5 632,-62.5 632,-68.5 632,-68.5 632,-80.5 632,-80.5 632,-86.5 626,-92.5 620,-92.5 620,-92.5 590,-92.5 590,-92.5 584,-92.5 578,-86.5 578,-80.5 578,-80.5 578,-68.5 578,-68.5 578,-62.5 584,-56.5 590,-56.5"/>
<text text-anchor="middle" x="605" y="-72" font-family="SimSun" font-size="10.00">Fedora</text>
</g>
<!-- linuxDist&#45;&gt;Fedora -->
<g id="edge24" class="edge"><title>linuxDist&#45;&gt;Fedora</title>
<path fill="none" stroke="grey" d="M536.044,-197.632C542.813,-193.947 549.117,-189.314 554,-183.5 566.03,-169.177 563.368,-117.534 573,-101.5 574.075,-99.7105 575.309,-97.9774 576.652,-96.3113"/>
<polygon fill="grey" stroke="grey" points="579.958,-92.55 578.347,-97.7908 578.308,-94.4276 576.657,-96.3052 576.657,-96.3052 576.657,-96.3052 578.308,-94.4276 574.967,-94.8197 579.958,-92.55 579.958,-92.55"/>
</g>
<!-- CentOS -->
<g id="node25" class="node"><title>CentOS</title>
<path fill="aliceblue" stroke="steelblue" d="M590,-1.5C590,-1.5 620,-1.5 620,-1.5 626,-1.5 632,-7.5 632,-13.5 632,-13.5 632,-25.5 632,-25.5 632,-31.5 626,-37.5 620,-37.5 620,-37.5 590,-37.5 590,-37.5 584,-37.5 578,-31.5 578,-25.5 578,-25.5 578,-13.5 578,-13.5 578,-7.5 584,-1.5 590,-1.5"/>
<text text-anchor="middle" x="605" y="-17" font-family="SimSun" font-size="10.00">CentOS</text>
</g>
<!-- linuxDist&#45;&gt;CentOS -->
<g id="edge25" class="edge"><title>linuxDist&#45;&gt;CentOS</title>
<path fill="none" stroke="grey" d="M536.176,-198.186C543.016,-194.427 549.307,-189.626 554,-183.5 563.346,-171.3 565.686,-60.0158 573,-46.5 573.902,-44.8327 574.951,-43.2207 576.106,-41.6705"/>
<polygon fill="grey" stroke="grey" points="579.385,-37.7158 577.926,-43.001 577.789,-39.6404 576.194,-41.565 576.194,-41.565 576.194,-41.565 577.789,-39.6404 574.462,-40.1289 579.385,-37.7158 579.385,-37.7158"/>
</g>
<!-- GNU&#45;&gt;linuxDist -->
<g id="edge27" class="edge"><title>GNU&#45;&gt;linuxDist</title>
<path fill="none" stroke="grey" stroke-dasharray="1,5" d="M400.63,-172.817C406.886,-176.496 413.607,-180.266 420,-183.5 425.293,-186.178 430.902,-188.829 436.527,-191.371"/>
<polygon fill="grey" stroke="grey" points="441.249,-193.478 435.766,-193.495 438.966,-192.459 436.683,-191.44 436.683,-191.44 436.683,-191.44 438.966,-192.459 437.6,-189.386 441.249,-193.478 441.249,-193.478"/>
</g>
<!-- GNU&#39;s Not Unix 的缩写 -->
<g id="node27" class="node"><title>GNU&#39;s Not Unix 的缩写</title>
<path fill="aliceblue" stroke="lightblue" d="M436.5,-138.5C436.5,-138.5 537.5,-138.5 537.5,-138.5 543.5,-138.5 549.5,-144.5 549.5,-150.5 549.5,-150.5 549.5,-162.5 549.5,-162.5 549.5,-168.5 543.5,-174.5 537.5,-174.5 537.5,-174.5 436.5,-174.5 436.5,-174.5 430.5,-174.5 424.5,-168.5 424.5,-162.5 424.5,-162.5 424.5,-150.5 424.5,-150.5 424.5,-144.5 430.5,-138.5 436.5,-138.5"/>
<text text-anchor="middle" x="487" y="-154" font-family="SimSun" font-size="10.00">GNU&#39;s Not Unix 的缩写</text>
</g>
<!-- GNU&#45;&gt;GNU&#39;s Not Unix 的缩写 -->
<g id="edge28" class="edge"><title>GNU&#45;&gt;GNU&#39;s Not Unix 的缩写</title>
<path fill="none" stroke="grey" d="M400.642,-156.5C406.387,-156.5 412.722,-156.5 419.268,-156.5"/>
<polygon fill="grey" stroke="grey" points="424.309,-156.5 419.309,-158.75 421.809,-156.5 419.309,-156.5 419.309,-156.5 419.309,-156.5 421.809,-156.5 419.309,-154.25 424.309,-156.5 424.309,-156.5"/>
</g>
<!-- 由 Richard Stallman\n在麻省理工学院\n人工智能实验室发起,\n目标是成立一个\n完全免费的操作系统 -->
<g id="node28" class="node"><title>由 Richard Stallman\n在麻省理工学院\n人工智能实验室发起,\n目标是成立一个\n完全免费的操作系统</title>
<path fill="aliceblue" stroke="lightblue" d="M441,-56C441,-56 533,-56 533,-56 539,-56 545,-62 545,-68 545,-68 545,-107 545,-107 545,-113 539,-119 533,-119 533,-119 441,-119 441,-119 435,-119 429,-113 429,-107 429,-107 429,-68 429,-68 429,-62 435,-56 441,-56"/>
<text text-anchor="middle" x="487" y="-107" font-family="SimSun" font-size="10.00">由 Richard Stallman</text>
<text text-anchor="middle" x="487" y="-96" font-family="SimSun" font-size="10.00">在麻省理工学院</text>
<text text-anchor="middle" x="487" y="-85" font-family="SimSun" font-size="10.00">人工智能实验室发起,</text>
<text text-anchor="middle" x="487" y="-74" font-family="SimSun" font-size="10.00">目标是成立一个</text>
<text text-anchor="middle" x="487" y="-63" font-family="SimSun" font-size="10.00">完全免费的操作系统</text>
</g>
<!-- GNU&#45;&gt;由 Richard Stallman\n在麻省理工学院\n人工智能实验室发起,\n目标是成立一个\n完全免费的操作系统 -->
<g id="edge29" class="edge"><title>GNU&#45;&gt;由 Richard Stallman\n在麻省理工学院\n人工智能实验室发起,\n目标是成立一个\n完全免费的操作系统</title>
<path fill="none" stroke="grey" d="M400.642,-140.323C409.653,-134.746 420.119,-128.27 430.569,-121.803"/>
<polygon fill="grey" stroke="grey" points="435.043,-119.034 431.975,-123.579 432.917,-120.35 430.791,-121.665 430.791,-121.665 430.791,-121.665 432.917,-120.35 429.607,-119.752 435.043,-119.034 435.043,-119.034"/>
</g>
<!-- 自由软件组织\n口号是：开源，自由 -->
<g id="node29" class="node"><title>自由软件组织\n口号是：开源，自由</title>
<path fill="aliceblue" stroke="lightblue" d="M447,-0.5C447,-0.5 527,-0.5 527,-0.5 533,-0.5 539,-6.5 539,-12.5 539,-12.5 539,-24.5 539,-24.5 539,-30.5 533,-36.5 527,-36.5 527,-36.5 447,-36.5 447,-36.5 441,-36.5 435,-30.5 435,-24.5 435,-24.5 435,-12.5 435,-12.5 435,-6.5 441,-0.5 447,-0.5"/>
<text text-anchor="middle" x="487" y="-21.5" font-family="SimSun" font-size="10.00">自由软件组织</text>
<text text-anchor="middle" x="487" y="-10.5" font-family="SimSun" font-size="10.00">口号是：开源，自由</text>
</g>
<!-- GNU&#45;&gt;自由软件组织\n口号是：开源，自由 -->
<g id="edge30" class="edge"><title>GNU&#45;&gt;自由软件组织\n口号是：开源，自由</title>
<path fill="none" stroke="grey" d="M377.637,-138.147C382.628,-114.159 394.542,-72.1886 420,-46.5 423.086,-43.3864 426.571,-40.5995 430.289,-38.1084"/>
<polygon fill="grey" stroke="grey" points="434.749,-35.3181 431.704,-39.8774 432.63,-36.644 430.51,-37.9699 430.51,-37.9699 430.51,-37.9699 432.63,-36.644 429.317,-36.0625 434.749,-35.3181 434.749,-35.3181"/>
</g>
</g>
</svg>
