<?xml version="1.0" encoding="UTF-8" standalone="no"?>
<!DOCTYPE svg PUBLIC "-//W3C//DTD SVG 1.1//EN"
 "http://www.w3.org/Graphics/SVG/1.1/DTD/svg11.dtd">
<!-- Generated by graphviz version 2.38.0 (20140413.2041)
 -->
<!-- Title: oses Pages: 1 -->
<svg width="691pt" height="588pt"
 viewBox="0.00 0.00 691.00 587.50" xmlns="http://www.w3.org/2000/svg" xmlns:xlink="http://www.w3.org/1999/xlink">
<g id="graph0" class="graph" transform="scale(1 1) rotate(0) translate(4 583.5)">
<title>oses</title>
<polygon fill="white" stroke="none" points="-4,4 -4,-583.5 687,-583.5 687,4 -4,4"/>
<!-- OS -->
<g id="node1" class="node"><title>OS</title>
<polygon fill="none" stroke="lightblue" points="0,-496 0,-532 54,-532 54,-496 0,-496"/>
<text text-anchor="middle" x="27" y="-510.3" font-family="SimSun" font-size="14.00">OS</text>
</g>
<!-- Windows -->
<g id="node2" class="node"><title>Windows</title>
<polygon fill="none" stroke="lightblue" points="91,-530 91,-566 160,-566 160,-530 91,-530"/>
<text text-anchor="middle" x="125.5" y="-544.3" font-family="SimSun" font-size="14.00">Windows</text>
</g>
<!-- OS&#45;&gt;Windows -->
<g id="edge1" class="edge"><title>OS&#45;&gt;Windows</title>
<path fill="none" stroke="black" d="M54.1143,-523.201C62.4826,-526.149 71.9852,-529.497 81.2402,-532.758"/>
<polygon fill="black" stroke="black" points="80.1425,-536.082 90.7373,-536.104 82.4687,-529.48 80.1425,-536.082"/>
</g>
<!-- UNIX -->
<g id="node3" class="node"><title>UNIX</title>
<polygon fill="none" stroke="lightblue" points="98.5,-450 98.5,-486 152.5,-486 152.5,-450 98.5,-450"/>
<text text-anchor="middle" x="125.5" y="-464.3" font-family="SimSun" font-size="14.00">UNIX</text>
</g>
<!-- OS&#45;&gt;UNIX -->
<g id="edge2" class="edge"><title>OS&#45;&gt;UNIX</title>
<path fill="none" stroke="black" d="M54.1143,-501.552C64.9491,-496.387 77.6852,-490.316 89.3237,-484.768"/>
<polygon fill="black" stroke="black" points="90.844,-487.921 98.3648,-480.458 87.8319,-481.602 90.844,-487.921"/>
</g>
<!-- 微软公司 -->
<g id="node4" class="node"><title>微软公司</title>
<polygon fill="none" stroke="lightblue" points="247.5,-543 247.5,-579 320.5,-579 320.5,-543 247.5,-543"/>
<text text-anchor="middle" x="284" y="-557.3" font-family="SimSun" font-size="14.00">微软公司</text>
</g>
<!-- Windows&#45;&gt;微软公司 -->
<g id="edge3" class="edge"><title>Windows&#45;&gt;微软公司</title>
<path fill="none" stroke="black" d="M160.073,-550.789C182.549,-552.656 212.421,-555.137 237.089,-557.186"/>
<polygon fill="black" stroke="black" points="237.05,-560.695 247.306,-558.035 237.63,-553.719 237.05,-560.695"/>
</g>
<!-- TM -->
<g id="node5" class="node"><title>TM</title>
<polygon fill="none" stroke="lightblue" points="257,-488 257,-524 311,-524 311,-488 257,-488"/>
<text text-anchor="middle" x="284" y="-502.3" font-family="SimSun" font-size="14.00">TM</text>
</g>
<!-- UNIX&#45;&gt;TM -->
<g id="edge4" class="edge"><title>UNIX&#45;&gt;TM</title>
<path fill="none" stroke="black" d="M152.695,-474.36C178.501,-480.627 218.133,-490.25 246.914,-497.238"/>
<polygon fill="black" stroke="black" points="246.437,-500.724 256.981,-499.682 248.089,-493.921 246.437,-500.724"/>
<text text-anchor="middle" x="201" y="-493.8" font-family="Times New Roman,serif" font-size="9.00">商标</text>
</g>
<!-- BSD -->
<g id="node6" class="node"><title>BSD</title>
<polygon fill="none" stroke="lightblue" points="257,-433 257,-469 311,-469 311,-433 257,-433"/>
<text text-anchor="middle" x="284" y="-447.3" font-family="SimSun" font-size="14.00">BSD</text>
</g>
<!-- UNIX&#45;&gt;BSD -->
<g id="edge5" class="edge"><title>UNIX&#45;&gt;BSD</title>
<path fill="none" stroke="black" d="M152.695,-465.155C178.501,-462.351 218.133,-458.046 246.914,-454.92"/>
<polygon fill="black" stroke="black" points="247.417,-458.386 256.981,-453.826 246.661,-451.427 247.417,-458.386"/>
<text text-anchor="middle" x="201" y="-464.8" font-family="Times New Roman,serif" font-size="9.00">开源版本</text>
</g>
<!-- Linux -->
<g id="node7" class="node"><title>Linux</title>
<polygon fill="none" stroke="lightblue" points="242,-303 242,-339 326,-339 326,-303 242,-303"/>
<text text-anchor="middle" x="284" y="-317.3" font-family="SimSun" font-size="14.00">GNU/Linux</text>
</g>
<!-- UNIX&#45;&gt;Linux -->
<g id="edge6" class="edge"><title>UNIX&#45;&gt;Linux</title>
<path fill="none" stroke="black" d="M145.69,-449.975C173.38,-423.966 224.659,-375.799 256.111,-346.257"/>
<polygon fill="black" stroke="black" points="258.76,-348.57 263.653,-339.173 253.968,-343.468 258.76,-348.57"/>
<text text-anchor="middle" x="201" y="-418.8" font-family="Times New Roman,serif" font-size="9.00">山寨版本</text>
</g>
<!-- AIX(IBM) -->
<g id="node8" class="node"><title>AIX(IBM)</title>
<polygon fill="none" stroke="lightblue" points="380,-543 380,-579 457,-579 457,-543 380,-543"/>
<text text-anchor="middle" x="418.5" y="-557.3" font-family="SimSun" font-size="14.00">AIX(IBM)</text>
</g>
<!-- TM&#45;&gt;AIX(IBM) -->
<g id="edge7" class="edge"><title>TM&#45;&gt;AIX(IBM)</title>
<path fill="none" stroke="black" d="M311.178,-516.866C328.106,-523.893 350.625,-533.241 370.58,-541.524"/>
<polygon fill="black" stroke="black" points="369.258,-544.764 379.835,-545.366 371.941,-538.299 369.258,-544.764"/>
</g>
<!-- Solaris(SUN) -->
<g id="node9" class="node"><title>Solaris(SUN)</title>
<polygon fill="none" stroke="lightblue" points="365,-488 365,-524 472,-524 472,-488 365,-488"/>
<text text-anchor="middle" x="418.5" y="-502.3" font-family="SimSun" font-size="14.00">Solaris(SUN)</text>
</g>
<!-- TM&#45;&gt;Solaris(SUN) -->
<g id="edge8" class="edge"><title>TM&#45;&gt;Solaris(SUN)</title>
<path fill="none" stroke="black" d="M311.178,-506C323.737,-506 339.373,-506 354.757,-506"/>
<polygon fill="black" stroke="black" points="354.795,-509.5 364.795,-506 354.795,-502.5 354.795,-509.5"/>
</g>
<!-- OpenBSD -->
<g id="node10" class="node"><title>OpenBSD</title>
<polygon fill="none" stroke="lightblue" points="384,-433 384,-469 453,-469 453,-433 384,-433"/>
<text text-anchor="middle" x="418.5" y="-447.3" font-family="SimSun" font-size="14.00">OpenBSD</text>
</g>
<!-- BSD&#45;&gt;OpenBSD -->
<g id="edge9" class="edge"><title>BSD&#45;&gt;OpenBSD</title>
<path fill="none" stroke="black" d="M311.178,-451C328.985,-451 352.979,-451 373.667,-451"/>
<polygon fill="black" stroke="black" points="373.824,-454.5 383.824,-451 373.824,-447.5 373.824,-454.5"/>
</g>
<!-- NetBSD -->
<g id="node11" class="node"><title>NetBSD</title>
<polygon fill="none" stroke="lightblue" points="387.5,-378 387.5,-414 449.5,-414 449.5,-378 387.5,-378"/>
<text text-anchor="middle" x="418.5" y="-392.3" font-family="SimSun" font-size="14.00">NetBSD</text>
</g>
<!-- BSD&#45;&gt;NetBSD -->
<g id="edge10" class="edge"><title>BSD&#45;&gt;NetBSD</title>
<path fill="none" stroke="black" d="M311.178,-440.134C330.23,-432.225 356.364,-421.377 377.954,-412.415"/>
<polygon fill="black" stroke="black" points="379.309,-415.642 387.203,-408.576 376.625,-409.177 379.309,-415.642"/>
</g>
<!-- linuxDesc -->
<g id="node12" class="node"><title>linuxDesc</title>
<path fill="none" stroke="lightblue" d="M375,-323C375,-323 462,-323 462,-323 468,-323 474,-329 474,-335 474,-335 474,-347 474,-347 474,-353 468,-359 462,-359 462,-359 375,-359 375,-359 369,-359 363,-353 363,-347 363,-347 363,-335 363,-335 363,-329 369,-323 375,-323"/>
<text text-anchor="middle" x="418.5" y="-337.3" font-family="SimSun" font-size="14.00">创始人：Linus</text>
</g>
<!-- Linux&#45;&gt;linuxDesc -->
<g id="edge11" class="edge"><title>Linux&#45;&gt;linuxDesc</title>
<path fill="none" stroke="black" d="M326.198,-327.218C334.587,-328.485 343.606,-329.846 352.591,-331.202"/>
<polygon fill="black" stroke="black" points="352.276,-334.694 362.687,-332.726 353.321,-327.773 352.276,-334.694"/>
</g>
<!-- 发行版 -->
<g id="node13" class="node"><title>发行版</title>
<polygon fill="none" stroke="lightblue" points="389,-268 389,-304 448,-304 448,-268 389,-268"/>
<text text-anchor="middle" x="418.5" y="-282.3" font-family="SimSun" font-size="14.00">发行版</text>
</g>
<!-- Linux&#45;&gt;发行版 -->
<g id="edge12" class="edge"><title>Linux&#45;&gt;发行版</title>
<path fill="none" stroke="black" d="M326.198,-310.118C343.058,-305.664 362.457,-300.54 379.025,-296.163"/>
<polygon fill="black" stroke="black" points="380.153,-299.485 388.928,-293.547 378.366,-292.717 380.153,-299.485"/>
</g>
<!-- GNU -->
<g id="node14" class="node"><title>GNU</title>
<polygon fill="none" stroke="lightblue" points="391.5,-103 391.5,-139 445.5,-139 445.5,-103 391.5,-103"/>
<text text-anchor="middle" x="418.5" y="-117.3" font-family="SimSun" font-size="14.00">GNU</text>
</g>
<!-- Linux&#45;&gt;GNU -->
<g id="edge13" class="edge"><title>Linux&#45;&gt;GNU</title>
<path fill="none" stroke="black" d="M296.992,-302.899C320.435,-267.513 372.433,-189.026 399.828,-147.675"/>
<polygon fill="black" stroke="black" points="402.834,-149.474 405.439,-139.205 396.999,-145.608 402.834,-149.474"/>
</g>
<!-- Android -->
<g id="node15" class="node"><title>Android</title>
<polygon fill="none" stroke="lightblue" points="562.5,-433 562.5,-469 631.5,-469 631.5,-433 562.5,-433"/>
<text text-anchor="middle" x="597" y="-447.3" font-family="SimSun" font-size="14.00">Android</text>
</g>
<!-- 发行版&#45;&gt;Android -->
<g id="edge14" class="edge"><title>发行版&#45;&gt;Android</title>
<path fill="none" stroke="black" d="M448.104,-295.668C457.426,-300.02 467.133,-306.016 474,-314 507.635,-353.105 474.22,-387.837 511,-424 522.123,-434.937 537.657,-441.447 552.406,-445.321"/>
<polygon fill="black" stroke="black" points="551.9,-448.796 562.428,-447.604 553.455,-441.97 551.9,-448.796"/>
</g>
<!-- ubuntu -->
<g id="node16" class="node"><title>ubuntu</title>
<polygon fill="none" stroke="lightblue" points="566,-378 566,-414 628,-414 628,-378 566,-378"/>
<text text-anchor="middle" x="597" y="-392.3" font-family="SimSun" font-size="14.00">ubuntu</text>
</g>
<!-- 发行版&#45;&gt;ubuntu -->
<g id="edge15" class="edge"><title>发行版&#45;&gt;ubuntu</title>
<path fill="none" stroke="black" d="M448.092,-297.328C456.994,-301.7 466.447,-307.286 474,-314 496.02,-333.572 487.424,-351.333 511,-369 523.987,-378.732 540.588,-385.021 555.667,-389.055"/>
<polygon fill="black" stroke="black" points="555.257,-392.556 565.799,-391.502 556.9,-385.752 555.257,-392.556"/>
</g>
<!-- debian -->
<g id="node17" class="node"><title>debian</title>
<polygon fill="none" stroke="lightblue" points="566,-323 566,-359 628,-359 628,-323 566,-323"/>
<text text-anchor="middle" x="597" y="-337.3" font-family="SimSun" font-size="14.00">debian</text>
</g>
<!-- 发行版&#45;&gt;debian -->
<g id="edge16" class="edge"><title>发行版&#45;&gt;debian</title>
<path fill="none" stroke="black" d="M448.251,-294.959C477.552,-304.09 523.235,-318.325 556.046,-328.55"/>
<polygon fill="black" stroke="black" points="555.195,-331.95 565.783,-331.584 557.277,-325.267 555.195,-331.95"/>
</g>
<!-- archlinux -->
<g id="node18" class="node"><title>archlinux</title>
<polygon fill="none" stroke="lightblue" points="555,-268 555,-304 639,-304 639,-268 555,-268"/>
<text text-anchor="middle" x="597" y="-282.3" font-family="SimSun" font-size="14.00">archlinux</text>
</g>
<!-- 发行版&#45;&gt;archlinux -->
<g id="edge17" class="edge"><title>发行版&#45;&gt;archlinux</title>
<path fill="none" stroke="black" d="M448.251,-286C474.228,-286 513.08,-286 544.424,-286"/>
<polygon fill="black" stroke="black" points="544.737,-289.5 554.737,-286 544.737,-282.5 544.737,-289.5"/>
</g>
<!-- redhat -->
<g id="node19" class="node"><title>redhat</title>
<polygon fill="none" stroke="lightblue" points="566,-213 566,-249 628,-249 628,-213 566,-213"/>
<text text-anchor="middle" x="597" y="-227.3" font-family="SimSun" font-size="14.00">redhat</text>
</g>
<!-- 发行版&#45;&gt;redhat -->
<g id="edge18" class="edge"><title>发行版&#45;&gt;redhat</title>
<path fill="none" stroke="black" d="M448.251,-277.041C477.552,-267.91 523.235,-253.675 556.046,-243.45"/>
<polygon fill="black" stroke="black" points="557.277,-246.733 565.783,-240.416 555.195,-240.05 557.277,-246.733"/>
</g>
<!-- centos -->
<g id="node20" class="node"><title>centos</title>
<polygon fill="none" stroke="lightblue" points="566,-158 566,-194 628,-194 628,-158 566,-158"/>
<text text-anchor="middle" x="597" y="-172.3" font-family="SimSun" font-size="14.00">centos</text>
</g>
<!-- 发行版&#45;&gt;centos -->
<g id="edge19" class="edge"><title>发行版&#45;&gt;centos</title>
<path fill="none" stroke="black" d="M435.269,-267.655C452.243,-248.963 480.885,-220.329 511,-203 524.848,-195.032 541.343,-189.1 556.1,-184.858"/>
<polygon fill="black" stroke="black" points="557.245,-188.175 565.985,-182.187 555.419,-181.417 557.245,-188.175"/>
</g>
<!-- GNU&#39;s Not Unix 的缩写 -->
<g id="node21" class="node"><title>GNU&#39;s Not Unix 的缩写</title>
<polygon fill="none" stroke="lightblue" points="511,-103 511,-139 683,-139 683,-103 511,-103"/>
<text text-anchor="middle" x="597" y="-117.3" font-family="SimSun" font-size="14.00">GNU&#39;s Not Unix 的缩写</text>
</g>
<!-- GNU&#45;&gt;GNU&#39;s Not Unix 的缩写 -->
<g id="edge20" class="edge"><title>GNU&#45;&gt;GNU&#39;s Not Unix 的缩写</title>
<path fill="none" stroke="black" d="M445.543,-121C460.541,-121 480.416,-121 500.789,-121"/>
<polygon fill="black" stroke="black" points="500.812,-124.5 510.812,-121 500.812,-117.5 500.812,-124.5"/>
</g>
<!-- 由 Richard Stallman\n在麻省理工学院\n人工智能实验室发起,\n目标是成立一个\n完全免费操作系统 -->
<g id="node22" class="node"><title>由 Richard Stallman\n在麻省理工学院\n人工智能实验室发起,\n目标是成立一个\n完全免费操作系统</title>
<polygon fill="none" stroke="lightblue" points="518,-0.5 518,-83.5 676,-83.5 676,-0.5 518,-0.5"/>
<text text-anchor="middle" x="597" y="-68.3" font-family="SimSun" font-size="14.00">由 Richard Stallman</text>
<text text-anchor="middle" x="597" y="-53.3" font-family="SimSun" font-size="14.00">在麻省理工学院</text>
<text text-anchor="middle" x="597" y="-38.3" font-family="SimSun" font-size="14.00">人工智能实验室发起,</text>
<text text-anchor="middle" x="597" y="-23.3" font-family="SimSun" font-size="14.00">目标是成立一个</text>
<text text-anchor="middle" x="597" y="-8.3" font-family="SimSun" font-size="14.00">完全免费操作系统</text>
</g>
<!-- GNU&#45;&gt;由 Richard Stallman\n在麻省理工学院\n人工智能实验室发起,\n目标是成立一个\n完全免费操作系统 -->
<g id="edge21" class="edge"><title>GNU&#45;&gt;由 Richard Stallman\n在麻省理工学院\n人工智能实验室发起,\n目标是成立一个\n完全免费操作系统</title>
<path fill="none" stroke="black" d="M445.543,-109.343C462.474,-101.765 485.62,-91.4052 508.681,-81.0831"/>
<polygon fill="black" stroke="black" points="510.148,-84.2612 517.846,-76.9812 507.289,-77.872 510.148,-84.2612"/>
</g>
</g>
</svg>
